<?xml version="1.0" encoding="UTF-8"?>

<svg version="1.1" xmlns="http://www.w3.org/2000/svg" xmlns:xlink="http://www.w3.org/1999/xlink">
    <symbol viewBox="0 0 25 25" id="phone" xmlns="http://www.w3.org/2000/svg">
        <path d="M13.2436 0.785645C13.2436 0.578444 13.3259 0.37973 13.4724 0.233217C13.6189 0.0867046 13.8177 0.00439453 14.0249 0.00439453C16.9347 0.00439453 19.7254 1.16034 21.783 3.21792C23.8406 5.27551 24.9965 8.0662 24.9965 10.9761C24.9965 11.1833 24.9142 11.382 24.7677 11.5285C24.6212 11.675 24.4225 11.7573 24.2153 11.7573C24.0081 11.7573 23.8094 11.675 23.6629 11.5285C23.5163 11.382 23.434 11.1833 23.434 10.9761C23.434 5.78794 19.2132 1.56714 14.0251 1.56714C13.9225 1.56717 13.8208 1.54698 13.726 1.50772C13.6312 1.46845 13.545 1.41089 13.4724 1.33832C13.3999 1.26574 13.3423 1.17958 13.303 1.08475C13.2638 0.989918 13.2436 0.888281 13.2436 0.785645V0.785645ZM14.0249 5.89795C15.3712 5.89947 16.6619 6.43498 17.6139 7.38698C18.5659 8.33899 19.1015 9.62974 19.103 10.9761C19.103 11.1833 19.1853 11.382 19.3318 11.5285C19.4783 11.675 19.677 11.7573 19.8842 11.7573C20.0914 11.7573 20.2901 11.675 20.4367 11.5285C20.5832 11.382 20.6655 11.1833 20.6655 10.9761C20.6655 7.31441 17.6865 4.33545 14.0249 4.33545C13.8177 4.33545 13.6189 4.41776 13.4724 4.56427C13.3259 4.71078 13.2436 4.9095 13.2436 5.1167C13.2436 5.3239 13.3259 5.52261 13.4724 5.66913C13.6189 5.81564 13.8177 5.89795 14.0249 5.89795V5.89795ZM11.7153 10.9761C11.7153 10.5193 11.8508 10.0728 12.1046 9.69301C12.3584 9.31324 12.7192 9.01725 13.1412 8.84248C13.5632 8.66772 14.0276 8.62201 14.4756 8.71116C14.9236 8.8003 15.3351 9.02028 15.6581 9.34329C15.981 9.6663 16.201 10.0778 16.2901 10.5258C16.3792 10.9738 16.3334 11.4382 16.1586 11.8602C15.9838 12.2822 15.6878 12.6429 15.308 12.8967C14.9282 13.1504 14.4816 13.2859 14.0249 13.2859C13.4124 13.2852 12.8253 13.0416 12.3923 12.6085C11.9592 12.1754 11.7157 11.5883 11.715 10.9758L11.7153 10.9761ZM13.2778 10.9761C13.2777 11.1239 13.3215 11.2684 13.4036 11.3913C13.4857 11.5143 13.6024 11.6101 13.7389 11.6667C13.8755 11.7233 14.0258 11.7381 14.1707 11.7093C14.3157 11.6805 14.4489 11.6093 14.5534 11.5048C14.658 11.4003 14.7292 11.2672 14.758 11.1222C14.7869 10.9772 14.7721 10.827 14.7156 10.6904C14.659 10.5538 14.5632 10.4371 14.4403 10.355C14.3174 10.2728 14.1729 10.229 14.0251 10.229C13.827 10.2292 13.6371 10.3079 13.4969 10.4479C13.3568 10.5879 13.2779 10.7777 13.2775 10.9758L13.2778 10.9761ZM0.0105469 6.30894C0.00644737 6.27646 0.00439254 6.24377 0.00439453 6.21104C0.00439453 3.73057 0.925293 1.75117 2.66763 0.487305C3.11318 0.158577 3.6575 -0.00839094 4.21074 0.0139648L6.09473 0.0750977C6.3706 0.0815099 6.63927 0.164359 6.87084 0.314421C7.10242 0.464484 7.2878 0.675871 7.40635 0.925049L9.1544 4.51323C9.42942 5.07128 9.50475 5.70677 9.36781 6.31365C9.23086 6.92053 8.88993 7.46209 8.40191 7.84795L6.83223 9.10073C8.79024 13.4111 11.5896 16.2101 15.8999 18.1684L17.1526 16.5987C17.5385 16.1106 18.0801 15.7696 18.687 15.6327C19.294 15.4957 19.9295 15.5711 20.4876 15.8462L24.0758 17.5942C24.325 17.7128 24.5363 17.8982 24.6864 18.1297C24.8365 18.3613 24.9193 18.6299 24.9257 18.9058L24.9869 20.7899C25.0091 21.343 24.8422 21.8873 24.5137 22.3329C23.2498 24.0751 21.2705 24.9961 18.7899 24.9961C18.7573 24.9961 18.7247 24.994 18.6923 24.9899C13.7625 24.3677 9.39419 22.276 6.05942 18.9413C2.72466 15.6065 0.633008 11.2382 0.0105469 6.30894V6.30894ZM18.374 17.5736L18.0626 17.9637C19.7639 18.9151 21.554 19.698 23.4075 20.3015L23.3648 18.9863L19.8031 17.2511C19.5645 17.1305 19.2914 17.0968 19.0306 17.1556C18.7698 17.2144 18.5377 17.3622 18.374 17.5736V17.5736ZM6.0146 1.63608L4.68477 1.59292C5.24858 3.37349 6.03731 5.16714 7.03618 6.93916L7.4273 6.62695C7.6386 6.46321 7.78633 6.23103 7.84513 5.97026C7.90393 5.70949 7.87014 5.43638 7.74956 5.1978L6.0146 1.63608ZM1.56704 6.16245C2.76274 15.4659 9.53476 22.2379 18.8382 23.4336C20.6054 23.4239 21.9839 22.8724 22.9444 21.7937C20.9042 21.1314 18.937 20.2624 17.0736 19.2001C16.8617 19.4535 16.5727 19.6306 16.2506 19.7042C15.9286 19.7778 15.5913 19.7439 15.2904 19.6076C10.6412 17.5044 7.49624 14.3595 5.39292 9.71016C5.25663 9.40917 5.22272 9.07181 5.29638 8.74972C5.37004 8.42762 5.54721 8.13854 5.80078 7.92671C4.69004 5.99038 3.81572 4.02319 3.19585 2.06641C2.12437 3.02646 1.5769 4.40142 1.56704 6.16245V6.16245Z" fill="currentColor"/>
    </symbol>

    <symbol viewBox="0 0 27 26" id="clock" xmlns="http://www.w3.org/2000/svg">
        <path fill-rule="evenodd" clip-rule="evenodd" d="M20.7488 6.02194C20.3378 5.6268 19.7057 5.6268 19.2948 6.02194L19.6413 6.38236L19.2948 6.02194L19.1046 6.20484C18.6826 6.6106 18.6826 7.25153 19.1046 7.65728C19.3055 7.85046 19.5652 7.95364 19.8316 7.95364C20.0979 7.95364 20.3576 7.85046 20.5586 7.65728L20.7488 7.47438C21.1708 7.06862 21.1708 6.4277 20.7488 6.02194ZM13.5 0.5C6.34035 0.5 0.5 6.08808 0.5 13.0192C0.5 19.9504 6.34035 25.5385 13.5 25.5385C20.6597 25.5385 26.5 19.9504 26.5 13.0192C26.5 6.08808 20.6597 0.5 13.5 0.5ZM13.5 23.4933C7.45313 23.4933 2.58696 18.7867 2.58696 13.0192C2.58696 7.2518 7.45313 2.54515 13.5 2.54515C19.5469 2.54515 24.413 7.2518 24.413 13.0192C24.413 18.7867 19.5469 23.4933 13.5 23.4933ZM13.5 5.41923C14.0564 5.41923 14.5435 4.97852 14.5435 4.39666V4.13537C14.5435 3.55351 14.0564 3.11279 13.5 3.11279C12.9436 3.11279 12.4565 3.55351 12.4565 4.13537V4.39666C12.4565 4.97852 12.9436 5.41923 13.5 5.41923ZM13.5 20.6191C12.9436 20.6191 12.4565 21.0599 12.4565 21.6417V21.903C12.4565 22.4849 12.9436 22.9256 13.5 22.9256C14.0564 22.9256 14.5435 22.4849 14.5435 21.903V21.6417C14.5435 21.0599 14.0564 20.6191 13.5 20.6191ZM4.5325 11.9966H4.26076C3.70437 11.9966 3.21729 12.4373 3.21729 13.0192C3.21729 13.601 3.70437 14.0417 4.26076 14.0417H4.5325C5.08889 14.0417 5.57598 13.601 5.57598 13.0192C5.57598 12.4373 5.08889 11.9966 4.5325 11.9966ZM22.739 11.9966H22.4673C21.9109 11.9966 21.4238 12.4373 21.4238 13.0192C21.4238 13.601 21.9109 14.0417 22.4673 14.0417H22.739C23.2954 14.0417 23.7825 13.601 23.7825 13.0192C23.7825 12.4373 23.2954 11.9966 22.739 11.9966ZM7.70504 6.02194C7.29409 5.6268 6.66201 5.6268 6.25106 6.02194C5.82907 6.4277 5.82907 7.06862 6.25106 7.47438L6.44128 7.65728C6.64218 7.85046 6.9019 7.95364 7.16827 7.95364C7.43464 7.95364 7.69435 7.85046 7.89526 7.65728C8.31724 7.25153 8.31724 6.6106 7.89526 6.20484L7.70504 6.02194ZM6.44128 18.3808L6.25106 18.5637C5.82907 18.9695 5.82907 19.6104 6.25106 20.0162C6.45197 20.2093 6.71168 20.3125 6.97805 20.3125C7.24442 20.3125 7.50413 20.2093 7.70504 20.0162L7.89526 19.8333C8.31724 19.4275 8.31724 18.7866 7.89526 18.3808C7.48431 17.9857 6.85222 17.9857 6.44128 18.3808ZM14.5435 8.0548V12.5974L20.1781 18.0152C20.6001 18.421 20.6001 19.0619 20.1781 19.4677C19.9772 19.6609 19.7175 19.764 19.4511 19.764C19.1847 19.764 18.925 19.6609 18.7241 19.4677L12.773 13.7455C12.5717 13.5519 12.4565 13.2932 12.4565 13.0193V8.0548C12.4565 7.47294 12.9436 7.03223 13.5 7.03223C14.0564 7.03223 14.5435 7.47294 14.5435 8.0548Z" fill="currentColor"/>
    </symbol>

    <symbol viewBox="0 0 25 25" id="search" xmlns="http://www.w3.org/2000/svg">
        <path d="M24.2011 22.771L18.251 16.5827C19.7809 14.7641 20.6191 12.4759 20.6191 10.0937C20.6191 4.52814 16.091 0 10.5254 0C4.95978 0 0.431641 4.52814 0.431641 10.0937C0.431641 15.6593 4.95978 20.1875 10.5254 20.1875C12.6148 20.1875 14.6059 19.5573 16.3082 18.361L22.3035 24.5963C22.554 24.8565 22.8911 25 23.2523 25C23.5941 25 23.9185 24.8697 24.1647 24.6327C24.6878 24.1293 24.7045 23.2946 24.2011 22.771ZM10.5254 2.63315C14.6392 2.63315 17.986 5.97988 17.986 10.0937C17.986 14.2076 14.6392 17.5543 10.5254 17.5543C6.41152 17.5543 3.06479 14.2076 3.06479 10.0937C3.06479 5.97988 6.41152 2.63315 10.5254 2.63315Z" fill="currentColor"/>
    </symbol>

    <symbol viewBox="0 0 12 8" id="arrow-down" xmlns="http://www.w3.org/2000/svg">
        <path d="M5.40594 7.17443L0.246291 2.01461C-0.0820946 1.68638 -0.0820945 1.15421 0.246291 0.826147C0.574384 0.498053 1.10652 0.498053 1.43459 0.826147L6.00009 5.39179L10.5654 0.826281C10.8937 0.498187 11.4257 0.498187 11.7538 0.826281C12.0821 1.15438 12.0821 1.68651 11.7538 2.01474L6.5941 7.17456C6.42998 7.33861 6.2151 7.42054 6.00011 7.42054C5.78502 7.42054 5.56998 7.33845 5.40594 7.17443Z" fill="currentColor"/>
    </symbol>

    <symbol viewBox="0 0 7 11" id="arrow-right" xmlns="http://www.w3.org/2000/svg">
        <path d="M6.40981 6.04456L1.67997 10.7742C1.3791 11.0753 0.891283 11.0753 0.590555 10.7742C0.289802 10.4735 0.289802 9.98569 0.590555 9.68496L4.77573 5.49992L0.590677 1.31502C0.289924 1.01415 0.289924 0.526408 0.590677 0.225655C0.89143 -0.0752185 1.37922 -0.0752185 1.6801 0.225655L6.40993 4.95541C6.56031 5.10586 6.63541 5.30283 6.63541 5.4999C6.63541 5.69706 6.56016 5.89418 6.40981 6.04456Z" fill="currentColor"/>
    </symbol>

    <symbol viewBox="0 0 7 11" id="arrow-left" xmlns="http://www.w3.org/2000/svg">
        <path d="M0.590679 4.95544L5.32051 0.225765C5.62139 -0.0752554 6.1092 -0.0752554 6.40993 0.225765C6.71069 0.526517 6.71069 1.01431 6.40993 1.31504L2.22476 5.50008L6.40981 9.68498C6.71056 9.98585 6.71056 10.4736 6.40981 10.7743C6.10906 11.0752 5.62127 11.0752 5.32039 10.7743L0.590557 6.04459C0.44018 5.89414 0.365077 5.69717 0.365077 5.5001C0.365077 5.30294 0.440327 5.10582 0.590679 4.95544Z" fill="currentColor"/>
    </symbol>

    <symbol viewBox="0 0 12 23" id="facebook" xmlns="http://www.w3.org/2000/svg">
        <path d="M7.65708 12.3648H11.3793L11.9637 8.56055H7.65632V6.48134C7.65632 4.90099 8.16957 3.49962 9.63891 3.49962H12V0.179741C11.5852 0.123382 10.7078 0 9.04996 0C5.58819 0 3.55867 1.8393 3.55867 6.0297V8.56055H0V12.3648H3.55867V22.821C4.26344 22.9276 4.97729 23 5.71007 23C6.37245 23 7.01893 22.9391 7.65708 22.8522V12.3648Z" fill="currentColor"/>
    </symbol>

    <symbol viewBox="0 0 22 15" id="youtube" xmlns="http://www.w3.org/2000/svg">
        <path fill-rule="evenodd" clip-rule="evenodd" d="M2.26249 14.5568C1.87023 14.4408 1.51232 14.2343 1.21896 13.9549C0.925599 13.6754 0.705403 13.3312 0.576947 12.9512C-0.157079 10.9874 -0.374569 2.78693 1.03911 1.16807C1.50961 0.641449 2.17389 0.317218 2.88777 0.265759C6.68024 -0.13232 18.3975 -0.0792426 19.7432 0.398453C20.1217 0.518323 20.4675 0.720256 20.7547 0.989122C21.0419 1.25799 21.263 1.58681 21.4015 1.95096C22.2035 3.98117 22.2307 11.3589 21.2928 13.3095C21.044 13.8172 20.6275 14.2285 20.1102 14.4772C18.6965 15.1672 4.13833 15.1539 2.26249 14.5568ZM8.28422 10.7087L15.0808 7.25869L8.28422 3.78213L8.28422 10.7087Z" fill="currentColor"/>
    </symbol>

    <symbol viewBox="0 0 18 16" id="telegram" xmlns="http://www.w3.org/2000/svg">
        <path d="M18 0.5668L15.1528 15.3339C15.1528 15.3339 14.7544 16.3578 13.66 15.8667L7.09065 10.6848L7.06019 10.6695C7.94756 9.84978 14.8286 3.48486 15.1293 3.19635C15.5949 2.74952 15.3059 2.48351 14.7653 2.82104L4.60117 9.46162L0.679868 8.10425C0.679868 8.10425 0.0627701 7.87843 0.00340374 7.38739C-0.0567437 6.89556 0.700177 6.62955 0.700177 6.62955L16.6861 0.177833C16.6861 0.177833 18 -0.416066 18 0.5668Z" fill="currentColor"/>
    </symbol>

    <symbol viewBox="0 0 15 15" id="linkedin" xmlns="http://www.w3.org/2000/svg">
        <path d="M15 8.7444L15 14.2601L11.7713 14.2601L11.7713 9.08072C11.7713 7.80269 11.3005 6.92826 10.157 6.92826C9.28251 6.92826 8.74439 7.53363 8.5426 8.07175C8.47534 8.27354 8.40807 8.5426 8.40807 8.87892L8.40807 14.2601L5.17937 14.2601C5.17937 14.2601 5.24664 5.5157 5.17937 4.64126L8.40807 4.64126L8.40807 5.98655C8.81166 5.3139 9.61883 4.3722 11.3004 4.3722C13.3856 4.3722 15 5.78475 15 8.7444ZM1.81614 0C0.739908 0 0 0.73991 0 1.68161C0 2.62332 0.672645 3.36323 1.74888 3.36323C2.89238 3.36323 3.56502 2.62332 3.56502 1.68161C3.63229 0.672646 2.95964 0 1.81614 0ZM0.201793 14.2601L3.43049 14.2601L3.43049 4.64126L0.201793 4.64126L0.201793 14.2601Z" fill="currentColor"/>
    </symbol>

    <symbol viewBox="0 0 30 12" id="scroll-down" xmlns="http://www.w3.org/2000/svg">
        <path d="M13.5148 11.2906L0.615726 2.69093C-0.205239 2.14388 -0.205238 1.25694 0.615726 0.710163C1.43596 0.163339 2.7663 0.163339 3.58646 0.710163L15.0002 8.31957L26.4136 0.710387C27.2341 0.163564 28.5643 0.163564 29.3846 0.710388C30.2051 1.25721 30.2051 2.14411 29.3846 2.69115L16.4853 11.2909C16.0749 11.5643 15.5377 11.7008 15.0003 11.7008C14.4626 11.7008 13.925 11.564 13.5148 11.2906Z" fill="currentColor"/>
    </symbol>

    <symbol viewBox="0 0 81 79" id="about-1" xmlns="http://www.w3.org/2000/svg">
        <path fill-rule="evenodd" clip-rule="evenodd" d="M60.4055 10.8642C53.4672 1.54308 41.3491 -1.7093 30.9163 2.10583C30.1383 2.39035 29.7382 3.25172 30.0227 4.02976C30.3073 4.80779 31.1686 5.20787 31.9467 4.92335C41.1755 1.54846 51.88 4.435 57.999 12.6555L59.2022 11.7598L57.999 12.6555C58.4829 13.3056 58.9274 13.9723 59.3327 14.6529C57.501 13.5873 55.5645 12.6818 53.5425 11.9557L53.5281 11.9504L53.501 11.9408C50.1941 10.758 46.6589 10.0546 42.9795 9.91477L39.3614 6.72496C38.74 6.1771 37.7921 6.23673 37.2442 6.85814C36.6964 7.47955 36.756 8.42742 37.3774 8.97527L38.5617 10.0194C36.064 10.2337 33.6394 10.7083 31.3156 11.4165C30.5231 11.6579 30.0765 12.4961 30.318 13.2886C30.5595 14.081 31.3976 14.5277 32.1901 14.2862C35.1703 13.378 38.3348 12.8889 41.6162 12.8889C41.8507 12.8889 42.0846 12.8914 42.3179 12.8964C42.3455 12.8978 42.3731 12.8984 42.4007 12.8983C44.9914 12.96 47.5066 13.3269 49.9117 13.9645L45.9867 17.1835C45.3461 17.7088 45.2527 18.654 45.7781 19.2945C46.3034 19.9351 47.2486 20.0285 47.8891 19.5031L53.2982 15.067C56.0038 16.1176 58.5328 17.5224 60.8283 19.2249C59.6105 20.8067 58.1626 22.254 56.4895 23.516C47.7331 30.1202 35.7471 29.4369 27.8113 22.4809L26.8226 23.6089L27.8113 22.4809C25.1832 20.1773 22.0174 18.6112 18.6435 17.8466C19.3392 16.0941 20.2555 14.4177 21.3869 12.865C21.8748 12.1955 21.7275 11.2572 21.058 10.7693C20.3885 10.2815 19.4502 10.4287 18.9623 11.0983C17.2924 13.39 16.0385 15.9157 15.2113 18.5556C15.0795 18.9762 15.1394 19.4335 15.375 19.806C15.6106 20.1785 15.9981 20.4285 16.4346 20.4896C19.924 20.9785 23.2058 22.4334 25.8339 24.7369C34.8171 32.611 48.3818 33.3885 58.2959 25.9111L58.296 25.9111C60.163 24.5028 61.7848 22.8879 63.1534 21.1222C64.7561 22.5585 66.2146 24.1527 67.5045 25.8806C68.0001 26.5445 68.94 26.6809 69.6038 26.1853C70.2677 25.6898 70.4041 24.7499 69.9086 24.086C68.2429 21.8547 66.319 19.8268 64.1812 18.0466C63.3312 15.5279 62.0732 13.1047 60.4055 10.8642ZM9.68686 34.4325C10.1293 32.3265 10.7807 30.2663 11.6321 28.2853C11.9593 27.5242 11.6075 26.642 10.8464 26.3149C10.0853 25.9878 9.20307 26.3396 8.87594 27.1007C7.77644 29.6589 6.98217 32.3389 6.50943 35.0804C4.75299 37.0759 3.28352 39.3767 2.17697 41.9414L2.17695 41.9414C-3.44901 54.9817 2.64322 70.1964 15.7831 75.8058C20.9188 77.9982 26.3769 78.3659 31.4353 77.235C31.8654 77.1388 32.2315 76.8583 32.4363 76.468C32.6411 76.0777 32.6639 75.6171 32.4986 75.2085C31.1771 71.9422 30.7961 68.3727 31.4771 64.9449C33.8047 53.2282 27.6955 41.092 16.2629 36.2448C14.1097 35.3319 11.9003 34.735 9.68686 34.4325ZM12.3675 61.2814L12.0555 62.8288C11.8918 63.6409 11.1008 64.1665 10.2887 64.0028C9.47659 63.839 8.95099 63.048 9.11472 62.2359L10.068 57.5077C7.29058 52.2453 5.97621 46.5734 5.99458 40.9759C5.6078 41.6672 5.25264 42.3856 4.93151 43.1298C-0.0326476 54.6362 5.34044 68.0859 16.961 73.0466C20.9316 74.7417 25.1198 75.202 29.1052 74.6171C28.0803 71.313 27.8536 67.7883 28.5346 64.3603C30.5908 54.0098 25.1894 43.288 15.0918 39.0068C13.1624 38.1888 11.185 37.6586 9.20627 37.3949C8.87965 40.2339 8.92746 43.1263 9.3704 45.9946L15.9171 48.4613C16.6923 48.7534 17.084 49.6186 16.7919 50.3938C16.4998 51.1691 15.6346 51.5607 14.8593 51.2686L10.1088 49.4787C10.7587 51.8787 11.6977 54.2388 12.9383 56.5119C12.9542 56.539 12.9693 56.5666 12.9836 56.5946C13.0951 56.7975 13.209 56.9997 13.3253 57.2012C14.9661 60.0431 16.9717 62.5389 19.2484 64.6655C19.8539 65.231 19.8862 66.1802 19.3207 66.7856C18.7552 67.391 17.8061 67.4234 17.2006 66.8579C15.4253 65.1996 13.802 63.3373 12.3675 61.2814ZM72.9766 33.3616C73.4169 33.3438 73.8428 33.5206 74.1412 33.845C77.6496 37.66 80.0604 42.5709 80.7294 48.1148C82.4413 62.2989 72.3111 75.1822 58.205 76.8301L58.2049 76.8301C55.4307 77.1541 52.7035 77.0319 50.0973 76.5086C47.4866 77.47 44.7683 78.1223 42.0029 78.4492C41.1802 78.5464 40.4344 77.9584 40.3372 77.1357C40.2399 76.313 40.828 75.5672 41.6507 75.4699C43.7921 75.2168 45.902 74.7508 47.9472 74.0809C47.1024 72.0128 46.5147 69.8007 46.2286 67.4798L46.2286 67.4797C44.7102 55.1551 52.166 43.7964 63.4766 39.9538C66.7855 38.8296 69.6865 36.7147 71.8547 33.9373C72.1259 33.5899 72.5362 33.3794 72.9766 33.3616ZM69.8587 58.3347L71.3548 57.8312C72.1399 57.567 72.9907 57.9892 73.2549 58.7744C73.5192 59.5595 73.0969 60.4102 72.3117 60.6745L67.7404 62.213C64.5717 67.2495 60.317 71.2238 55.4604 74.0067C56.2524 73.9959 57.052 73.9444 57.857 73.8504C70.3037 72.3963 79.265 61.0182 77.751 48.4741C77.2338 44.188 75.5381 40.3307 73.039 37.1718C70.6899 39.7113 67.7507 41.6701 64.4416 42.7943C54.4498 46.1889 47.865 56.2275 49.2061 67.1128C49.4625 69.1928 49.9919 71.1705 50.753 73.0159C53.3749 71.8793 55.856 70.3916 58.1185 68.5739L56.9812 61.6708C56.8466 60.8534 57.4 60.0816 58.2174 59.9469C59.0349 59.8123 59.8067 60.3657 59.9413 61.1831L60.7666 66.1924C62.5191 64.4305 64.0927 62.4385 65.4405 60.2291C65.4574 60.1991 65.4752 60.1697 65.4941 60.141C65.6133 59.9442 65.7306 59.7458 65.8462 59.5456C67.4869 56.7039 68.6455 53.7188 69.3489 50.6839C69.536 49.8768 70.3419 49.3742 71.1489 49.5613C71.9559 49.7483 72.4585 50.5542 72.2715 51.3612C71.723 53.7276 70.9219 56.0646 69.8587 58.3347Z" fill="white"/>
    </symbol>

    <symbol viewBox="0 0 70 81" id="about-2" xmlns="http://www.w3.org/2000/svg">
        <path fill-rule="evenodd" clip-rule="evenodd" d="M35.4053 0.236711C45.4691 6.17849 56.6792 10.9333 67.8238 13.9869C68.5641 14.1896 69.0774 14.8626 69.0774 15.6302V33.0399C69.0774 50.9681 60.8071 62.8352 53.8689 69.6332C46.3991 76.9524 37.698 81 34.5392 81C31.38 81 22.6788 76.9524 15.2091 69.6332C8.27068 62.835 0 50.9679 0 33.0399V15.6303C0 14.8626 0.51321 14.1896 1.2536 13.9869C12.7146 10.8467 23.3189 6.34919 33.673 0.236711C34.2074 -0.0789037 34.8707 -0.0789037 35.4053 0.236711ZM51.4838 67.1989C57.9555 60.8578 65.6697 49.7844 65.6697 33.0397V16.923C54.9715 13.8741 44.2553 9.31534 34.5395 3.67826C24.5748 9.46895 14.3678 13.8118 3.40785 16.9236V33.0397C3.40785 49.7844 11.1223 60.8577 17.5939 67.1989C24.9396 74.3963 32.7937 77.592 34.5392 77.592C36.2846 77.592 44.1383 74.3963 51.4838 67.1989ZM17.2265 15.7722C18.1023 15.4271 19.0915 15.8573 19.4364 16.7329C19.7815 17.6086 19.3513 18.5978 18.4757 18.9426C15.7452 20.0185 12.9514 21.0195 10.1545 21.9244V27.259C10.1545 28.2 9.3915 28.9628 8.45067 28.9628C7.50984 28.9628 6.74683 28.2 6.74683 27.259V20.6792C6.74683 19.9347 7.23029 19.2765 7.94078 19.0535C11.0585 18.0755 14.1827 16.9715 17.2265 15.7722ZM22.6731 17.0562C22.9017 17.0562 23.1338 17.0102 23.3563 16.9131L23.3877 16.8995C24.2497 16.5217 24.638 15.5182 24.2602 14.6565C23.8821 13.7944 22.8729 13.4045 22.0118 13.7819L21.9843 13.7938C21.1217 14.1705 20.7322 15.1732 21.1089 16.0354C21.3885 16.6755 22.0157 17.0562 22.6731 17.0562ZM52.4812 55.4356C52.9964 54.6479 54.0523 54.4266 54.8397 54.9412C55.6273 55.4558 55.849 56.5117 55.334 57.2995C53.8124 59.6291 52.0295 61.8566 50.0344 63.9202C48.3983 65.6126 46.6248 67.1904 44.7636 68.6096C44.4551 68.845 44.092 68.9588 43.7316 68.9588C43.2184 68.9588 42.711 68.7275 42.3755 68.2878C41.8052 67.5394 41.9491 66.4702 42.6973 65.8997C44.4228 64.5843 46.0672 63.1212 47.5846 61.5515C49.4299 59.6425 51.0771 57.5846 52.4812 55.4356ZM38.7403 68.572L38.6426 68.6296C37.8283 69.1012 37.55 70.1435 38.0215 70.9577C38.3374 71.5035 38.9093 71.8082 39.4977 71.8082C39.7872 71.8082 40.0811 71.7344 40.3496 71.5785L40.4624 71.5122C41.2744 71.0367 41.5472 69.993 41.0716 69.181C40.5957 68.3692 39.5519 68.097 38.7403 68.572ZM19.0075 35.4003C20.4873 35.4003 21.8787 35.9761 22.9249 37.0225L29.0681 43.1653L46.1532 26.0802C47.1997 25.034 48.5911 24.458 50.0711 24.458C51.5512 24.458 52.9426 25.0339 53.989 26.0802C56.1491 28.2398 56.1491 31.7546 53.9893 33.9155L32.9861 54.9189C31.9396 55.9652 30.5482 56.5412 29.0682 56.5412C27.5883 56.5412 26.1969 55.9652 25.1505 54.9192L15.0894 44.8584C12.9295 42.6982 12.9295 39.1829 15.0894 37.0225C16.1361 35.9763 17.5277 35.4003 19.0075 35.4003ZM50.0712 27.8657C49.5014 27.8657 48.9656 28.0873 48.5629 28.49L30.2726 46.7801C29.9532 47.0997 29.5201 47.2791 29.0681 47.2791C28.6161 47.2791 28.1829 47.0995 27.8632 46.7801L20.5155 39.4322C20.1129 39.0296 19.5773 38.808 19.0073 38.808C18.4373 38.808 17.9015 39.0299 17.4987 39.4325C16.6674 40.2639 16.6674 41.6172 17.499 42.4488L27.5598 52.5093C27.9626 52.9119 28.4984 53.1335 29.0682 53.1335C29.6381 53.1335 30.1739 52.9119 30.5765 52.5093L51.5794 31.5063C52.4111 30.6746 52.4111 29.3213 51.5797 28.49C51.1768 28.0873 50.6414 27.8657 50.0712 27.8657Z" fill="white"/>
    </symbol>

    <symbol viewBox="0 0 77 60" id="about-3" xmlns="http://www.w3.org/2000/svg">
        <path fill-rule="evenodd" clip-rule="evenodd" d="M47.2788 6.14947C47.663 6.42865 47.9488 6.82264 48.0947 7.27465C48.2424 7.72613 48.2429 8.21283 48.0961 8.66459C47.9493 9.11635 47.6629 9.50984 47.2781 9.78834L43.7328 12.3642L45.087 16.5321C45.2337 16.9836 45.2337 17.47 45.0869 17.9216C44.9402 18.3732 44.6543 18.7667 44.2701 19.0457C43.886 19.3248 43.4234 19.4751 42.9486 19.4751C42.4738 19.4751 42.0112 19.3248 41.6271 19.0458L38.0817 16.4699L34.5364 19.0456C34.1524 19.3253 33.6897 19.4762 33.2146 19.4765C32.7395 19.4768 32.2766 19.3265 31.8922 19.0473C31.5079 18.7681 31.2219 18.3742 31.0753 17.9223C30.9288 17.4704 30.9292 16.9837 31.0765 16.5321L32.4307 12.3642L28.8854 9.7885C28.5013 9.50939 28.2154 9.11586 28.0687 8.6643C27.9221 8.21275 27.9221 7.72635 28.0688 7.2748C28.2155 6.82326 28.5014 6.42975 28.8855 6.15067C29.2696 5.87159 29.7322 5.72127 30.207 5.72125H34.5892L35.9435 1.55339C36.0902 1.10187 36.3761 0.708388 36.7603 0.42934C37.1444 0.150292 37.607 0 38.0817 0C38.5565 0 39.0191 0.150292 39.4032 0.42934C39.7873 0.708388 40.0733 1.10187 40.22 1.55339L41.5742 5.72125H45.9565C46.4315 5.72035 46.8945 5.8703 47.2788 6.14947ZM41.0412 11.4897C41.1238 11.2355 41.2847 11.014 41.501 10.8568L45.0856 8.25266H40.6548C40.3875 8.25268 40.127 8.16807 39.9108 8.01097C39.6945 7.85386 39.5336 7.63233 39.451 7.37812L38.0817 3.1639L36.7128 7.37796C36.6302 7.63217 36.4693 7.8537 36.253 8.01081C36.0368 8.16791 35.7763 8.25252 35.509 8.2525H31.0782L34.6628 10.8568C34.8791 11.014 35.04 11.2355 35.1226 11.4897C35.2052 11.7439 35.2052 12.0178 35.1226 12.272L33.7533 16.4862L37.3382 13.8817C37.5543 13.7248 37.8146 13.6402 38.0817 13.6402C38.3489 13.6402 38.6091 13.7248 38.8253 13.8817L42.4105 16.4862L41.0412 12.272C40.9586 12.0178 40.9586 11.7439 41.0412 11.4897ZM23.3054 25.0867C23.018 25.2333 22.7001 25.3099 22.3775 25.3103C21.9455 25.3103 21.5246 25.1733 21.1753 24.9189L18.5213 22.9906L15.8673 24.9189C15.518 25.1726 15.0975 25.3092 14.6658 25.3091C14.2341 25.3091 13.8136 25.1724 13.4644 24.9187C13.1152 24.6649 12.8553 24.3072 12.7219 23.8966C12.5885 23.4861 12.5885 23.0439 12.7219 22.6334L13.7353 19.5136L11.0813 17.5854C10.7321 17.3316 10.4721 16.9738 10.3387 16.5631C10.2054 16.1525 10.2054 15.7102 10.3389 15.2996C10.4724 14.8891 10.7325 14.5313 11.0819 14.2776C11.4312 14.0239 11.8519 13.8874 12.2837 13.8876H15.5642L16.5779 10.7676C16.7113 10.3571 16.9713 9.99933 17.3205 9.74561C17.6698 9.49188 18.0903 9.35522 18.522 9.35522C18.9537 9.35522 19.3743 9.49188 19.7235 9.74561C20.0727 9.99933 20.3327 10.3571 20.4661 10.7676L21.4799 13.8874H24.7602C25.1919 13.8874 25.6125 14.0241 25.9617 14.2778C26.3109 14.5315 26.5709 14.8893 26.7043 15.2999C26.8377 15.7104 26.8377 16.1526 26.7043 16.5632C26.5709 16.9737 26.311 17.3315 25.9618 17.5852L23.3077 19.5134L24.3215 22.6332C24.421 22.9401 24.4465 23.2661 24.396 23.5847C24.3455 23.9033 24.2204 24.2055 24.0308 24.4665C23.8413 24.7275 23.5927 24.94 23.3054 25.0867ZM15.5931 21.9904L17.7779 20.4022H17.7781C17.9944 20.2452 18.2548 20.1607 18.522 20.1608C18.7893 20.161 19.0497 20.2457 19.2658 20.4028L21.4508 21.9904L20.6162 19.4218C20.5336 19.1676 20.5336 18.8938 20.6162 18.6396C20.6988 18.3854 20.8597 18.1638 21.076 18.0067L23.2608 16.4193H20.5602C20.293 16.4193 20.0326 16.3347 19.8164 16.1776C19.6002 16.0205 19.4392 15.7991 19.3566 15.5449L18.5219 12.9763L17.6874 15.5449C17.6048 15.7991 17.4439 16.0205 17.2276 16.1776C17.0114 16.3347 16.7511 16.4193 16.4838 16.4193H13.7831L15.9679 18.0065C16.1842 18.1636 16.3452 18.3852 16.4278 18.6395C16.5105 18.8937 16.5104 19.1676 16.4278 19.4218L15.5931 21.9904ZM14.5206 30.3402H11.2401L10.2264 27.2204C10.093 26.8098 9.8331 26.452 9.48387 26.1983C9.13465 25.9445 8.71406 25.8079 8.28238 25.8079C7.8507 25.8079 7.4301 25.9445 7.08088 26.1983C6.73166 26.452 6.47174 26.8098 6.33838 27.2204L5.32445 30.3403H2.04411C1.61244 30.3403 1.19185 30.477 0.842623 30.7307C0.493395 30.9844 0.233454 31.3422 0.100055 31.7528C-0.0333433 32.1633 -0.0333521 32.6055 0.100031 33.0161C0.233413 33.4266 0.49334 33.7844 0.842559 34.0382L3.49657 35.9663L2.48281 39.0863C2.34938 39.4968 2.34936 39.9391 2.48273 40.3496C2.61611 40.7602 2.87605 41.118 3.22528 41.3718C3.57452 41.6255 3.99512 41.7622 4.42681 41.7622C4.8585 41.7622 5.27911 41.6256 5.62836 41.3718L8.28238 39.4435L10.9364 41.3718C11.2857 41.6258 11.7064 41.7627 12.1382 41.7628C12.5701 41.7628 12.9909 41.6262 13.3402 41.3723C13.6896 41.1185 13.9496 40.7605 14.0829 40.3498C14.2163 39.939 14.2161 39.4966 14.0824 39.0859L13.0688 35.9662L15.7228 34.038C16.0721 33.7842 16.3321 33.4264 16.4654 33.0157C16.5988 32.6051 16.5987 32.1628 16.4652 31.7522C16.3317 31.3416 16.0716 30.9839 15.7223 30.7302C15.3729 30.4765 14.9524 30.34 14.5206 30.3402ZM10.8364 34.4587C10.6201 34.6158 10.4591 34.8373 10.3765 35.0916C10.2939 35.3458 10.2939 35.6197 10.3765 35.8739L11.2112 38.4432L9.02625 36.855C8.81009 36.698 8.54981 36.6135 8.28269 36.6135C8.01557 36.6135 7.7553 36.698 7.53914 36.855L5.35356 38.4432L6.18808 35.8739C6.27071 35.6197 6.27072 35.3459 6.18814 35.0917C6.10555 34.8375 5.94459 34.6159 5.72835 34.4588L3.54356 32.8714H6.24409C6.51133 32.8714 6.77172 32.7868 6.98793 32.6297C7.20414 32.4727 7.36509 32.2512 7.4477 31.997L8.28238 29.4284L9.1169 31.997C9.19951 32.2512 9.36045 32.4727 9.57667 32.6297C9.79288 32.7868 10.0533 32.8714 10.3205 32.8714H13.0212L10.8364 34.4587ZM70.7246 30.3402H74.0049C74.4367 30.34 74.8574 30.4765 75.2067 30.7302C75.5561 30.9839 75.8161 31.3416 75.9496 31.7522C76.0831 32.1628 76.0832 32.6051 75.9498 33.0157C75.8165 33.4264 75.5565 33.7842 75.2073 34.038L72.5532 35.9662L73.5668 39.0859C73.7007 39.4967 73.701 39.9393 73.5677 40.3503C73.4343 40.7612 73.1742 41.1193 72.8247 41.3732C72.4752 41.6271 72.0542 41.7638 71.6221 41.7635C71.1901 41.7633 70.7693 41.6261 70.42 41.3718L67.766 39.4435L65.112 41.3718C64.7628 41.6256 64.3421 41.7622 63.9105 41.7622C63.4788 41.7622 63.0582 41.6255 62.7089 41.3718C62.3597 41.118 62.0998 40.7602 61.9664 40.3496C61.833 39.9391 61.833 39.4968 61.9664 39.0863L62.9802 35.9663L60.3262 34.0382C59.9769 33.7844 59.717 33.4265 59.5836 33.0159C59.4502 32.6053 59.4503 32.163 59.5838 31.7524C59.7173 31.3418 59.9774 30.984 60.3267 30.7304C60.6761 30.4767 61.0968 30.3402 61.5285 30.3403H64.8089L65.8228 27.2204C65.9562 26.8098 66.2161 26.452 66.5653 26.1983C66.9145 25.9445 67.3351 25.8079 67.7668 25.8079C68.1985 25.8079 68.6191 25.9445 68.9683 26.1983C69.3175 26.452 69.5774 26.8098 69.7108 27.2204L70.7246 30.3402ZM69.8609 35.0916C69.9435 34.8373 70.1045 34.6158 70.3208 34.4587L72.5056 32.8714H69.8049C69.5377 32.8714 69.2773 32.7868 69.0611 32.6297C68.8449 32.4727 68.6839 32.2512 68.6013 31.997L67.7668 29.4284L66.9321 31.997C66.8495 32.2512 66.6886 32.4727 66.4724 32.6297C66.2561 32.7868 65.9958 32.8714 65.7285 32.8714H63.028L65.2128 34.4588C65.429 34.6159 65.59 34.8375 65.6726 35.0917C65.7552 35.3459 65.7551 35.6197 65.6725 35.8739L64.838 38.4432L67.0236 36.855C67.2397 36.698 67.5 36.6135 67.7671 36.6135C68.0342 36.6135 68.2945 36.698 68.5107 36.855L70.6956 38.4432L69.8609 35.8739C69.7783 35.6197 69.7783 35.3458 69.8609 35.0916ZM61.4972 25.3099C61.8199 25.3097 62.1379 25.2332 62.4253 25.0866C62.7128 24.94 62.9614 24.7275 63.1511 24.4664C63.3407 24.2054 63.4659 23.9032 63.5164 23.5845C63.567 23.2658 63.5414 22.9397 63.4418 22.6328L62.4282 19.5131L65.0823 17.5849C65.4315 17.3311 65.6915 16.9732 65.8248 16.5626C65.9582 16.152 65.9581 15.7097 65.8246 15.2991C65.6911 14.8885 65.4311 14.5307 65.0817 14.2771C64.7324 14.0234 64.3117 13.8869 63.8799 13.887H60.5996L59.5858 10.7673C59.4524 10.3567 59.1925 9.9989 58.8433 9.74516C58.4941 9.49141 58.0735 9.35474 57.6418 9.35474C57.2101 9.35474 56.7895 9.49141 56.4403 9.74516C56.0911 9.9989 55.8312 10.3567 55.6978 10.7673L54.6839 13.8872H51.4035C50.9718 13.887 50.5511 14.0236 50.2017 14.2772C49.8524 14.5309 49.5923 14.8887 49.4588 15.2993C49.3253 15.7098 49.3252 16.1521 49.4586 16.5628C49.592 16.9734 49.8519 17.3312 50.2012 17.585L52.8552 19.5132L51.8414 22.6331C51.708 23.0437 51.708 23.4859 51.8414 23.8965C51.9748 24.3071 52.2347 24.6649 52.5839 24.9186C52.9332 25.1724 53.3538 25.3091 53.7855 25.3091C54.2171 25.3091 54.6378 25.1724 54.987 24.9187L57.641 22.9904L60.295 24.9187C60.6443 25.173 61.0652 25.31 61.4972 25.3099ZM56.8978 20.4018L54.713 21.99L55.5475 19.4208C55.6301 19.1666 55.6302 18.8928 55.5476 18.6386C55.465 18.3843 55.304 18.1628 55.0878 18.0057L52.903 16.4183H55.6035C55.8708 16.4183 56.1311 16.3337 56.3474 16.1766C56.5636 16.0195 56.7245 15.798 56.8071 15.5439L57.6418 12.9753L58.4763 15.5439C58.5589 15.798 58.7199 16.0195 58.9361 16.1766C59.1523 16.3337 59.4127 16.4183 59.6799 16.4183H62.3806L60.1958 18.0055C59.9795 18.1626 59.8185 18.3842 59.7359 18.6384C59.6533 18.8927 59.6533 19.1666 59.7359 19.4208L60.5706 21.99L58.3857 20.4018C58.1695 20.2448 57.9091 20.1602 57.6418 20.1602C57.3746 20.1602 57.1142 20.2448 56.8979 20.4018H56.8978ZM44.4099 36.8137H53.2693C54.0904 36.8141 54.8892 37.0807 55.5461 37.5734C56.2029 38.0662 56.6823 38.7586 56.9123 39.5468C57.1424 40.335 57.1107 41.1766 56.8221 41.9453C56.5334 42.714 56.0034 43.3684 55.3114 43.8104C55.701 44.501 55.8642 45.2964 55.7781 46.0846C55.692 46.8728 55.3609 47.6142 54.8314 48.2043C55.4554 48.8998 55.8005 49.8012 55.8005 50.7356C55.8005 51.67 55.4554 52.5714 54.8314 53.2668C55.3207 53.8127 55.6415 54.4887 55.7549 55.213C55.8683 55.9373 55.7695 56.6789 55.4704 57.3482C55.1713 58.0176 54.6848 58.5859 54.0695 58.9847C53.4543 59.3834 52.7368 59.5953 52.0037 59.595H37.4692C35.1427 59.5972 32.8679 58.9085 30.9334 57.6162L30.1049 57.0637H20.363C20.0274 57.0637 19.7055 56.9304 19.4681 56.693C19.2308 56.4557 19.0974 56.1338 19.0974 55.7981V38.0793C19.0974 37.7437 19.2308 37.4218 19.4681 37.1844C19.7055 36.9471 20.0274 36.8137 20.363 36.8137H30.1701C31.4861 36.1071 32.6177 35.1012 33.4737 33.877C34.3297 32.6528 34.8861 31.2447 35.0981 29.7661L35.5634 26.5096C35.6065 26.2081 35.7569 25.9322 35.987 25.7326C36.2171 25.533 36.5115 25.4231 36.8162 25.4231H39.3474C40.6896 25.4246 41.9764 25.9585 42.9254 26.9076C43.8745 27.8566 44.4084 29.1434 44.4099 30.4856V36.8137ZM29.2224 39.345H21.6287V54.5325H29.2224V39.345ZM52.0037 41.8762H53.2693V41.8754C53.605 41.8754 53.9269 41.7421 54.1642 41.5047C54.4016 41.2674 54.5349 40.9455 54.5349 40.6098C54.5349 40.2741 54.4016 39.9522 54.1642 39.7149C53.9269 39.4775 53.605 39.3442 53.2693 39.3442H43.1443C42.8086 39.3442 42.4867 39.2108 42.2494 38.9735C42.012 38.7361 41.8787 38.4142 41.8787 38.0786V30.4848C41.8779 29.8137 41.6109 29.1703 41.1364 28.6958C40.6619 28.2213 40.0185 27.9544 39.3474 27.9536H37.9138L37.6039 30.1233C37.3468 31.9215 36.6873 33.6384 35.6744 35.1462C34.6614 36.654 33.3212 37.9137 31.7537 38.8314V55.1208L32.3374 55.51C33.8564 56.5247 35.6425 57.0654 37.4692 57.0637H52.0037C52.3393 57.0637 52.6612 56.9304 52.8986 56.693C53.1359 56.4557 53.2693 56.1338 53.2693 55.7981C53.2693 55.4624 53.1359 55.1405 52.8986 54.9032C52.6612 54.6658 52.3393 54.5325 52.0037 54.5325C51.668 54.5325 51.3461 54.3991 51.1087 54.1618C50.8714 53.9244 50.738 53.6025 50.738 53.2668C50.738 52.9312 50.8714 52.6093 51.1087 52.3719C51.3461 52.1346 51.668 52.0012 52.0037 52.0012C52.3393 52.0012 52.6612 51.8679 52.8986 51.6305C53.1359 51.3932 53.2693 51.0713 53.2693 50.7356C53.2693 50.3999 53.1359 50.078 52.8986 49.8407C52.6612 49.6033 52.3393 49.47 52.0037 49.47C51.668 49.47 51.3461 49.3366 51.1087 49.0993C50.8714 48.8619 50.738 48.54 50.738 48.2043C50.738 47.8687 50.8714 47.5468 51.1087 47.3094C51.3461 47.0721 51.668 46.9387 52.0037 46.9387C52.3393 46.9387 52.6612 46.8054 52.8986 46.568C53.1359 46.3307 53.2693 46.0088 53.2693 45.6731C53.2693 45.3374 53.1359 45.0155 52.8986 44.7782C52.6612 44.5408 52.3393 44.4075 52.0037 44.4075C51.668 44.4075 51.3461 44.2741 51.1087 44.0368C50.8714 43.7994 50.738 43.4775 50.738 43.1418C50.738 42.8062 50.8714 42.4843 51.1087 42.2469C51.3461 42.0096 51.668 41.8762 52.0037 41.8762Z" fill="white"/>
    </symbol>

    <symbol viewBox="0 0 68 67" id="about-4" xmlns="http://www.w3.org/2000/svg">
        <path fill-rule="evenodd" clip-rule="evenodd" d="M33.6143 3.1447C33.0658 3.17333 32.5459 2.84158 32.3374 2.33603C32.1017 1.76557 32.3026 1.08367 32.821 0.741184C33.2856 0.433971 33.9051 0.452885 34.3493 0.791279C34.7849 1.12252 34.9679 1.71496 34.7997 2.23482C34.632 2.75059 34.1561 3.11659 33.6143 3.1447ZM40.6401 15.8381C40.9765 15.8381 41.3128 15.7098 41.5694 15.4532L50.5435 6.4791C51.0567 5.96588 51.0567 5.13421 50.5435 4.62099C50.0303 4.10778 49.1986 4.10778 48.6854 4.62099L39.7113 13.5951C39.1981 14.1083 39.1981 14.94 39.7113 15.4532C39.9679 15.7098 40.3043 15.8381 40.6401 15.8381ZM66.7769 28.5743L55.5629 14.007C55.1478 13.4683 54.3908 13.3354 53.8167 13.7003L46.5765 18.305H37.1337C37.0115 18.305 36.8899 18.331 36.7723 18.3653L29.4508 20.4728L21.8538 18.3949L14.472 13.7003C13.9077 13.3415 13.1644 13.4632 12.7448 13.9835L0.341247 29.3472C-0.104493 29.8993 -0.0308844 30.7054 0.506866 31.168L7.00792 36.7628L12.8404 44.6225C11.1346 46.4397 11.1678 49.3059 12.9426 51.0811C13.7293 51.8673 14.7296 52.3115 15.7586 52.4148C15.7228 52.6479 15.7044 52.8845 15.7044 53.1248C15.7044 54.3649 16.1875 55.5309 17.0642 56.4075C17.9413 57.2847 19.1073 57.7677 20.3474 57.7677C20.3643 57.7677 20.3806 57.7667 20.397 57.7662C20.3968 57.7789 20.3964 57.7916 20.396 57.8042C20.3955 57.823 20.3949 57.8418 20.3949 57.8608C20.3949 59.1009 20.878 60.2669 21.7547 61.144C22.6318 62.0207 23.7978 62.5037 25.0379 62.5037C25.2827 62.5037 25.525 62.4838 25.7627 62.447C25.8634 63.4796 26.3087 64.4845 27.0979 65.2738C28.0027 66.179 29.1917 66.6314 30.3806 66.6314C31.5696 66.6314 32.7586 66.179 33.6639 65.2738L34.3739 64.5638L34.6719 64.804C35.5695 65.6735 36.735 66.108 37.9005 66.108C39.0894 66.108 40.2784 65.6556 41.1832 64.7503C42.1069 63.8266 42.5592 62.6075 42.5403 61.3945C43.7528 61.4129 44.9725 60.961 45.8962 60.0379C46.8188 59.1147 47.2712 57.8966 47.2533 56.6841C48.5164 56.704 49.7146 56.2189 50.6086 55.3249C51.5323 54.4012 51.9847 53.182 51.9658 51.969C53.1793 51.9874 54.3979 51.5356 55.3216 50.6119C56.8981 49.0354 57.101 46.5987 55.932 44.7999L60.1905 35.881L66.5929 30.3716C67.122 29.9162 67.2027 29.1269 66.7769 28.5743ZM14.0518 16.547L19.3598 19.9223L7.81301 33.9897L3.18591 30.0072L14.0518 16.547ZM14.8007 46.3728L16.4027 44.7708C16.4513 44.7222 16.5024 44.6762 16.5545 44.6332C16.8679 44.3777 17.2472 44.2253 17.6489 44.189C17.6538 44.1886 17.6587 44.1884 17.6636 44.1882L17.6717 44.1879L17.6832 44.1875C17.7404 44.1829 17.7977 44.1798 17.8554 44.1804C18.4044 44.188 18.9146 44.4124 19.2929 44.8116C20.0351 45.5963 19.9952 46.8783 19.2039 47.6696L17.6505 49.223C16.8648 50.0087 15.5864 50.0087 14.8007 49.223C14.015 48.4369 14.015 47.1584 14.8007 46.3728ZM18.9223 54.5494C18.5414 54.1691 18.3319 53.6631 18.3319 53.1248C18.3319 52.5865 18.5414 52.0805 18.9223 51.6997L22.0286 48.5933C22.6236 47.9983 23.5591 47.8352 24.3197 48.1976C25.1038 48.5713 25.545 49.4224 25.43 50.2786C25.3686 50.7356 25.156 51.166 24.8298 51.4926L21.7725 54.5494C21.3917 54.9302 20.8857 55.1398 20.3474 55.1398C19.8091 55.1398 19.3031 54.9302 18.9223 54.5494ZM23.6128 59.2854C23.2319 58.9051 23.0224 58.399 23.0224 57.8608C23.0224 57.3225 23.2319 56.8165 23.6128 56.4356L26.7186 53.3293C27.355 52.6934 28.3758 52.5564 29.1549 53.0098C29.8664 53.4238 30.239 54.2366 30.1169 55.0463C30.0499 55.4915 29.8383 55.9102 29.5198 56.2286L26.463 59.2854C26.0822 59.6662 25.5762 59.8758 25.0379 59.8758C24.4996 59.8758 23.9936 59.6662 23.6128 59.2854ZM28.9555 63.4157C28.1698 62.63 28.1698 61.3516 28.9555 60.5659L30.5575 58.9639C30.6061 58.9153 30.6567 58.8698 30.7088 58.8269C30.7103 58.8259 30.7114 58.8248 30.7124 58.8238C30.9731 58.6122 31.2793 58.4706 31.6059 58.4088L31.6289 58.4057C31.6851 58.3955 31.7424 58.3873 31.7996 58.3822C31.8129 58.381 31.8261 58.3805 31.8394 58.38C31.8492 58.3796 31.8592 58.3792 31.8692 58.3786L31.8874 58.3776L31.8876 58.3776H31.8877C31.9284 58.3753 31.969 58.373 32.0102 58.3735C32.5587 58.3812 33.0694 58.605 33.4477 59.0048C33.4942 59.0539 33.5376 59.105 33.5775 59.1576C34.1817 59.9474 34.1004 61.1205 33.3505 61.8709L31.8053 63.4162C31.0196 64.2018 29.7412 64.2013 28.9555 63.4157ZM53.4635 48.7538C52.6779 49.54 51.3994 49.5395 50.6138 48.7538C50.5851 48.7252 50.555 48.6986 50.5243 48.6735L42.0767 40.137C41.566 39.6212 40.7344 39.6171 40.2186 40.1278C39.7028 40.6379 39.6987 41.4696 40.2089 41.9854L48.748 50.6134L48.751 50.6165C49.5367 51.4022 49.5367 52.6811 48.751 53.4668C48.3702 53.8476 47.8642 54.0572 47.3259 54.0572C46.7871 54.0572 46.2811 53.8476 45.9008 53.4668L40.1884 47.6952C39.6783 47.1794 38.8466 47.1753 38.3309 47.6854C37.8151 48.1961 37.811 49.0278 38.3211 49.5435L43.9461 55.2267C43.9747 55.2625 44.0054 55.2968 44.0381 55.3295C44.8237 56.1151 44.8237 57.3941 44.0381 58.1798C43.2519 58.9654 41.9729 58.9649 41.1873 58.1792L38.0696 55.0289C37.559 54.5131 36.7273 54.5085 36.2115 55.0192C35.6958 55.5293 35.6917 56.361 36.2018 56.8768L39.2326 59.9387C39.2612 59.9745 39.2919 60.0092 39.3251 60.0419C40.1107 60.8276 40.1107 62.1066 39.3251 62.8922C38.5394 63.6784 37.261 63.6779 36.4753 62.8922C36.4091 62.826 36.3344 62.771 36.2594 62.7158L36.2592 62.7157C36.2318 62.6955 36.2044 62.6753 36.1773 62.6545C36.0914 62.5891 36.0689 62.5436 36.1119 62.4393C36.1335 62.3867 36.1604 62.3366 36.1874 62.2864C36.2146 62.2358 36.2419 62.185 36.2637 62.1316C36.3117 62.013 36.3506 61.8908 36.3884 61.7682C36.5898 61.119 36.6491 60.4207 36.5586 59.747C36.3848 58.4543 35.6738 57.2878 34.5963 56.5496C34.014 56.1514 33.3403 55.8902 32.6421 55.7921C32.9804 54.2995 32.5741 52.6811 31.517 51.5642C30.647 50.6451 29.4718 50.1293 28.2077 50.112C28.1616 50.1115 28.1156 50.1115 28.0691 50.112C28.0972 48.9056 27.6587 47.7069 26.827 46.8282C25.9565 45.9091 24.7813 45.3934 23.5177 45.376C23.142 45.3709 22.7627 45.4107 22.3967 45.4951C22.2403 44.4068 21.6918 43.3998 20.8611 42.6796C20.0356 41.9649 18.9974 41.5683 17.8917 41.5529C16.7278 41.5361 15.5843 41.9655 14.7199 42.746L9.64147 35.903L21.7909 21.1016L25.6631 22.1607L20.6061 31.0842C19.9947 32.1633 19.8403 33.4156 20.171 34.6107C20.5018 35.8064 21.2777 36.8011 22.3568 37.4125C22.4243 37.4508 22.4923 37.4871 22.5613 37.5219L22.5649 37.5237L22.5771 37.5295C22.7586 37.62 22.9452 37.6977 23.1343 37.7631C24.015 38.0683 24.9663 38.1015 25.8839 37.848C27.079 37.5173 28.0737 36.7408 28.6851 35.6622L31.9714 29.863L37.8391 30.2791L53.464 45.9035C54.2492 46.6897 54.2492 47.9681 53.4635 48.7538ZM54.0079 42.7317L39.3501 28.0744C39.3225 28.0463 39.2934 28.0197 39.2632 27.9947C39.0521 27.8188 38.7904 27.7125 38.5144 27.6931L31.3299 27.1835C30.833 27.1492 30.3392 27.4135 30.0939 27.8464L26.3991 34.3669C26.1338 34.8352 25.7019 35.172 25.1831 35.3157C24.6647 35.4593 24.1209 35.3918 23.6521 35.1265C23.1839 34.8612 22.847 34.4293 22.7034 33.9104C22.5597 33.3916 22.6267 32.8477 22.8925 32.3795L27.8248 23.6748L29.8235 23.0997C29.8368 23.0956 29.8495 23.0905 29.8628 23.0864L37.3223 20.9324H46.3353L57.5871 35.2359L54.0079 42.7317ZM59.3082 33.1739L48.9029 19.9392L54.2134 16.5619L63.9364 29.1913L59.3082 33.1739ZM26.4595 15.8381C26.1231 15.8381 25.7868 15.7098 25.5301 15.4532L16.5561 6.4791C16.0428 5.96588 16.0428 5.13421 16.5561 4.62099C17.0693 4.10778 17.9009 4.10778 18.4142 4.62099L27.3882 13.5951C27.9015 14.1083 27.9015 14.94 27.3882 15.4532C27.1316 15.7098 26.7953 15.8381 26.4595 15.8381ZM33.5498 15.8381C34.2751 15.8381 34.8635 15.2498 34.8635 14.5244V7.09764C34.8635 6.37229 34.2751 5.78394 33.5498 5.78394C32.8244 5.78394 32.2361 6.37229 32.2361 7.09764V14.5244C32.2361 15.2498 32.8244 15.8381 33.5498 15.8381Z" fill="white"/>
    </symbol>

    <symbol viewBox="0 0 24 49" id="facebook-outline" xmlns="http://www.w3.org/2000/svg">
        <path fill-rule="evenodd" clip-rule="evenodd" d="M12.3142 23.3424H20.1601L20.4637 21.2377H12.3126V13.8081C12.3126 11.9028 12.5899 9.74646 13.5475 7.95504C14.6065 5.974 16.5288 4.45571 19.2778 4.45571H21V3.08252C20.2229 3.03415 19.2676 3 18.0999 3C15.2019 3 13.3888 3.80418 12.2453 5.07866C11.0479 6.4131 10.1173 8.77894 10.1173 12.8459V21.2377H3V23.3424H10.1173V45.9551C10.5532 45.9843 10.9869 46 11.4201 46C11.7173 46 12.0151 45.9924 12.3142 45.9779V23.3424ZM15.3142 48.6852C14.0379 48.8702 12.7449 49 11.4201 49C9.95458 49 8.52688 48.8459 7.11734 48.6187V26.3424H0V18.2377H7.11734V12.8459C7.11734 3.91851 11.1764 0 18.0999 0C21.3574 0 23.1082 0.253706 23.9554 0.376471L24 0.382927V7.45571H19.2778C16.3391 7.45571 15.3126 10.4412 15.3126 13.8081V18.2377H23.9273L22.7585 26.3424H15.3142V48.6852Z" fill="currentColor"/>
    </symbol>

    <symbol viewBox="0 0 49 45" id="callback" xmlns="http://www.w3.org/2000/svg">
        <path d="M16.7947 10.8806H44.9395L29.5651 22.9538C29.2393 23.2094 28.8517 23.3342 28.5001 23.3684C28.1461 23.3336 27.7573 23.2088 27.4279 22.9538L16.4407 14.3228C16.3243 14.2292 16.1929 14.1578 16.0483 14.1134C16.5655 13.3838 16.8607 12.5012 16.8451 11.5502C16.8421 11.3324 16.8229 11.108 16.7947 10.8806ZM9.63731 3.116C9.67271 3.122 9.73091 3.1442 9.85751 3.203C10.1077 3.3218 10.5055 3.6278 10.8949 4.0544C11.6791 4.9088 12.4627 6.203 12.8695 7.0574C12.8821 7.0826 12.8953 7.1102 12.9073 7.1384C14.0617 9.119 14.5597 10.634 14.5747 11.5844C14.5909 12.539 14.3347 12.95 13.5253 13.415L11.4373 14.6186C10.0771 15.4016 9.43451 16.805 9.27491 18.1142C9.11471 19.424 9.3505 20.6966 9.93311 21.7028L15.0871 30.5858C15.6709 31.5914 16.6675 32.4326 17.8861 32.9492C19.1059 33.467 20.6485 33.6134 22.0087 32.8322L24.0967 31.631C24.9055 31.1672 25.3945 31.1576 26.2159 31.646C27.0397 32.1356 28.1095 33.3182 29.2591 35.3C29.2753 35.3294 29.2909 35.354 29.3095 35.3822C29.8483 36.1592 30.5821 37.4774 30.9361 38.5814C31.1119 39.1298 31.1809 39.6254 31.1587 39.8996C31.1341 40.175 31.1281 40.1468 31.0555 40.19L29.4667 41.1008C25.4755 42.8318 21.8173 42.4412 18.5479 40.7456C15.2725 39.0428 12.4255 35.9678 10.4407 32.3576C10.4341 32.3504 10.4311 32.3414 10.4257 32.3366L6.0781 24.8438C6.07091 24.8366 6.0679 24.83 6.0619 24.8204C3.9109 21.3044 2.65751 17.3126 2.8147 13.64C2.9719 9.9728 4.4599 6.6296 7.9651 4.0574L9.55451 3.1496C9.5911 3.1286 9.60311 3.1124 9.63731 3.116ZM9.65351 0.8834C9.23291 0.8768 8.80391 0.964999 8.41811 1.1888L6.7375 2.1554C6.69971 2.177 6.66491 2.1992 6.63071 2.2208C2.58731 5.18 0.725505 9.2996 0.543705 13.5458C0.361905 17.7902 1.7791 22.1708 4.1203 26.0006L8.45351 33.4676L8.44331 33.4454C10.6063 37.376 13.7059 40.7858 17.4937 42.7502C21.2833 44.7176 25.7977 45.1736 30.3961 43.1684C30.4339 43.1522 30.4723 43.1342 30.5065 43.1132L32.1895 42.1466C32.9677 41.7038 33.3589 40.8422 33.4225 40.0898C33.4879 39.3398 33.3349 38.6096 33.1027 37.8902C32.6479 36.4676 31.8547 35.0858 31.1995 34.1378C29.9617 32.0084 28.7665 30.5306 27.3853 29.7044C25.9933 28.8746 24.3223 28.8866 22.9591 29.6702L20.8711 30.8738C20.2543 31.229 19.5331 31.1876 18.7741 30.8666C18.0187 30.5456 17.3191 29.9036 17.0593 29.4536L11.9053 20.5712C11.6449 20.1188 11.4319 19.196 11.5327 18.3824C11.6299 17.5712 11.9593 16.9358 12.5767 16.58L14.6053 15.4136C14.6581 15.6854 14.8117 15.932 15.0343 16.0976L26.0221 24.7304C26.7367 25.292 27.5833 25.6046 28.4359 25.6538C28.4791 25.6562 28.5235 25.6562 28.5673 25.6538C29.4205 25.6046 30.2629 25.2914 30.9781 24.7304L46.1113 12.842V32.4824C46.1113 32.7812 45.7705 33.1748 45.1021 33.1748H34.6255C33.9949 33.1712 33.4843 33.68 33.4843 34.307C33.4843 34.9328 33.9955 35.4416 34.6255 35.438H45.1021C46.8145 35.438 48.3883 34.2002 48.3883 32.4824V11.573C48.3883 9.854 46.8145 8.6168 45.1021 8.6168H16.1713C15.8509 7.8158 15.4279 6.9668 14.8951 6.044C14.3965 5.006 13.5877 3.6338 12.5755 2.5304C12.0643 1.9712 11.5129 1.4756 10.8235 1.1552V1.1582C10.4809 0.9962 10.0735 0.8924 9.65351 0.8834Z" fill="currentColor"/>
    </symbol>

    <symbol viewBox="0 0 43 53" id="location" xmlns="http://www.w3.org/2000/svg">
        <path fill-rule="evenodd" clip-rule="evenodd" d="M0.244385 21.2444C0.244385 9.53333 9.77772 0 21.4888 0C33.1999 0 42.7333 9.53333 42.7555 21.2444C42.7555 22.5778 42.6222 23.9222 42.3777 25.2333C42.3666 25.3111 42.3222 25.5444 42.2333 25.9444C41.911 27.3889 41.4333 28.7889 40.811 30.1333C38.5222 35.5222 33.4777 43.8 22.4444 52.6667C22.1666 52.8889 21.8333 53 21.4999 53C21.1666 53 20.8333 52.8889 20.5555 52.6667C9.51105 43.8 4.47772 35.5222 2.18883 30.1333C1.56661 28.7889 1.08883 27.3778 0.766607 25.9444C0.677718 25.5444 0.633273 25.3111 0.622162 25.2333C0.366607 23.9222 0.244385 22.5778 0.244385 21.2444ZM39.3944 24.7444C39.3972 24.7333 39.3999 24.7222 39.3999 24.7111C39.6222 23.5778 39.7333 22.4111 39.7333 21.2333C39.7333 11.1778 31.5444 2.98889 21.4888 2.98889C11.4333 2.98889 3.24438 11.1778 3.24438 21.2333C3.24438 22.4 3.3555 23.5556 3.57772 24.7C3.57772 24.7184 3.58108 24.7333 3.58411 24.7468C3.58658 24.7578 3.58883 24.7678 3.58883 24.7778C3.59117 24.7895 3.594 24.8061 3.59764 24.8275C3.61127 24.9075 3.6362 25.0538 3.68883 25.2556V25.2778C3.97772 26.5222 4.38883 27.7444 4.92216 28.9C4.92772 28.9056 4.9305 28.9139 4.93327 28.9222C4.93605 28.9306 4.93883 28.9389 4.94438 28.9444C7.02216 33.8667 11.5777 41.3778 21.4888 49.5667C31.3999 41.3778 35.9555 33.8667 38.0333 28.9444C38.0388 28.9389 38.0416 28.9306 38.0444 28.9222C38.0472 28.9139 38.0499 28.9056 38.0555 28.9C38.5999 27.7333 39.011 26.5222 39.2888 25.2778V25.2556C39.3444 25 39.3777 24.8333 39.3888 24.7778C39.3888 24.7667 39.3916 24.7556 39.3944 24.7444ZM8 21.4778C8 14.0444 14.0556 7.98889 21.4889 7.98889C28.9222 7.98889 34.9778 14.0444 34.9778 21.4778C34.9778 28.9111 28.9222 34.9667 21.4889 34.9667C14.0556 34.9667 8 28.9111 8 21.4778ZM11 21.4778C11 27.2556 15.7 31.9667 21.4889 31.9667C27.2778 31.9667 31.9778 27.2556 31.9778 21.4778C31.9778 15.7 27.2667 10.9889 21.4889 10.9889C15.7111 10.9889 11 15.7 11 21.4778Z" fill="currentColor"/>
    </symbol>

    <symbol viewBox="0 0 41 41" id="info" xmlns="http://www.w3.org/2000/svg">
        <path fill-rule="evenodd" clip-rule="evenodd" d="M20.5 0C9.1963 0 0 9.19642 0 20.5001C0 31.8038 9.1963 41 20.5 41C31.8037 41 41 31.8038 41 20.5001C41 9.19642 31.8037 0 20.5 0ZM20.5 37.2727C11.2514 37.2727 3.72727 29.7486 3.72727 20.5001C3.72727 11.2516 11.2514 3.72727 20.5 3.72727C29.7486 3.72727 37.2727 11.2516 37.2727 20.5001C37.2727 29.7486 29.7485 37.2727 20.5 37.2727ZM20.5 8.69678C19.1301 8.69678 18.0156 9.81198 18.0156 11.1827C18.0156 12.5523 19.1301 13.6665 20.5 13.6665C21.8699 13.6665 22.9843 12.5523 22.9843 11.1827C22.9843 9.81198 21.8699 8.69678 20.5 8.69678ZM18.6367 19.2577C18.6367 18.2285 19.4711 17.394 20.5004 17.394C21.5296 17.394 22.364 18.2285 22.364 19.2577V30.4395C22.364 31.4687 21.5296 32.3031 20.5004 32.3031C19.4711 32.3031 18.6367 31.4687 18.6367 30.4395V19.2577Z" fill="currentColor"/>
    </symbol>

    <symbol viewBox="0 0 41 41" id="info-1" xmlns="http://www.w3.org/2000/svg">
        <path fill-rule="evenodd" clip-rule="evenodd" d="M32.5918 41.1819C33.3361 41.1819 33.9395 40.5785 33.9395 39.8342V35.2699C33.9395 34.5256 33.3361 33.9222 32.5918 33.9222C31.8475 33.9222 31.2441 34.5256 31.2441 35.2699V39.8342C31.2441 40.5785 31.8475 41.1819 32.5918 41.1819ZM41.1465 39.834C41.1465 40.5783 40.5431 41.1816 39.7988 41.1816C39.0545 41.1816 38.4512 40.5783 38.4512 39.834V36.7543C38.4512 32.0709 34.6047 28.2273 29.9049 28.2273H27.8006C27.3627 31.8755 24.2576 34.6956 20.5 34.6956C16.7385 34.6956 13.6365 31.8712 13.1992 28.2275H11.0951C6.39524 28.2275 2.54883 32.0701 2.54883 36.7544V39.8291C2.54883 40.5734 1.94546 41.1768 1.20117 41.1768C0.456882 41.1768 -0.146484 40.5734 -0.146484 39.8291V36.7544C-0.146484 30.5766 4.91163 25.5322 11.0951 25.5322H11.4638C9.2847 23.2612 7.94141 20.1777 7.94141 16.7954V15.816L7.9174 15.8023C5.29051 14.3007 3.29688 11.5024 3.29688 8.60356C3.29688 7.85927 3.90024 7.25591 4.64453 7.25591H5.28323C6.58575 7.25591 7.74294 6.58952 8.42555 5.5695L8.42557 5.56947C11.6277 0.784756 17.6475 -0.901344 22.7773 0.0935135C27.9702 1.10062 32.6057 4.94321 32.6579 11.4759C32.6585 11.5473 32.6534 11.6179 32.643 11.6872C32.9142 12.7146 33.0586 13.7917 33.0586 14.9V16.7954C33.0586 20.1776 31.7153 23.261 29.5363 25.532H29.9049C36.0886 25.532 41.1465 30.5776 41.1465 36.7543V39.834ZM17.4688 15.2759C15.2165 16.9173 12.8052 17.28 10.6368 16.8358C10.6587 22.2724 15.0974 26.709 20.5 26.709C25.916 26.709 30.3633 22.2503 30.3633 16.7954V16.6779C27.0295 16.6666 24.1768 14.4699 22.9038 11.3204C22.8301 11.3704 22.7551 11.4233 22.6784 11.4792L22.6783 11.4792L17.4688 15.2759L17.4688 15.2759ZM25.4858 10.5118C25.4922 10.5118 25.4985 10.5118 25.5049 10.5118C26.3866 10.5118 27.2479 10.7852 28.1192 11.2078C28.736 11.507 29.2699 11.8316 29.8174 12.1645L29.8176 12.1646L30.0121 12.2827C30.1627 12.8317 30.2672 13.3996 30.3211 13.9822C28.3201 13.9531 26.4235 12.6462 25.4858 10.5118ZM16.0041 28.5653C17.4011 29.107 18.9172 29.4043 20.5 29.4043C22.0828 29.4043 23.5988 29.107 24.9958 28.5653C24.4582 30.5465 22.6473 32.0002 20.5 32.0002C18.3507 32.0002 16.5413 30.5445 16.0041 28.5653ZM9.75586 39.8342C9.75586 40.5785 9.15249 41.1819 8.4082 41.1819C7.66391 41.1819 7.06055 40.5785 7.06055 39.8342V35.2699C7.06055 34.5256 7.66391 33.9222 8.4082 33.9222C9.15249 33.9222 9.75586 34.5256 9.75586 35.2699V39.8342ZM6.2083 9.88517C8.06559 9.6177 9.66897 8.55772 10.6656 7.06853C13.136 3.37713 17.9527 1.90337 22.2641 2.73952C25.7222 3.41018 28.6253 5.50898 29.607 8.93888C29.5036 8.88544 29.3996 8.83323 29.2954 8.78271C28.2262 8.2641 26.9473 7.81645 25.5049 7.81645C23.8954 7.81645 22.5992 8.2018 21.0909 9.30098L21.0909 9.30099L15.8813 13.0976L15.8813 13.0977C13.608 14.7544 11.1816 14.5637 9.25503 13.4624C7.73737 12.5948 6.6485 11.2341 6.2083 9.88517Z" fill="currentColor"/>
    </symbol>

    <symbol viewBox="0 0 37 41" id="info-2" xmlns="http://www.w3.org/2000/svg">
        <path d="M36.2565 39.3085C36.2549 35.673 35.7481 32.8332 34.707 30.6281C33.3649 27.7863 31.1344 26.0254 28.0777 25.3937L22.9659 24.4776V23.8682C24.6447 22.8137 25.8998 21.203 26.5121 19.3174C28.5657 19.1138 30.1732 17.4282 30.1732 15.3856C30.1718 14.8538 30.0613 14.328 29.8484 13.8406C29.6356 13.3533 29.3249 12.9148 28.9357 12.5524L29.1595 11.3881C29.7287 8.43089 27.84 5.78119 25.7712 4.18667C25.0039 1.94376 23.1756 0.807373 20.3301 0.807373H16.673C15.3716 0.814891 14.0859 1.09365 12.8982 1.62586C11.7105 2.15807 10.6468 2.93205 9.77495 3.89839C8.27253 5.5874 7.58185 7.6828 7.83009 9.79838L8.14424 12.4796C7.73185 12.8434 7.40128 13.2906 7.17434 13.7915C6.94741 14.2925 6.82925 14.8359 6.82768 15.3858C6.82768 17.4283 8.43508 19.1139 10.4887 19.3177C11.101 21.2033 12.3561 22.8139 14.0349 23.8684V24.4777L8.95439 25.3879L8.92316 25.3939C5.86626 26.0254 3.63576 27.7863 2.29373 30.6283C1.25104 32.8365 0.744141 35.6812 0.744141 39.3248V40.1924H3.14648V39.325C3.14648 32.386 5.09238 28.7116 9.2679 27.7773V34.0488C8.5826 34.3273 8.01544 34.8355 7.6635 35.4861C7.31156 36.1368 7.19672 36.8896 7.33865 37.6156C7.48058 38.3416 7.87044 38.9957 8.4415 39.4659C9.01256 39.9362 9.72931 40.1933 10.4691 40.1933C11.2088 40.1933 11.9256 39.9362 12.4966 39.4659C13.0677 38.9957 13.4576 38.3416 13.5995 37.6156C13.7414 36.8896 13.6266 36.1368 13.2746 35.4861C12.9227 34.8355 12.3555 34.3273 11.6702 34.0488V27.3417L14.5345 26.8287C14.9124 27.6559 15.2371 28.3915 15.5114 29.0125C15.9966 30.1121 16.3473 30.9066 16.6646 31.4805C16.8974 31.902 17.4424 32.8893 18.4704 32.8928H18.4759C19.4994 32.8928 20.0485 31.9148 20.2833 31.4968C20.6029 30.9275 20.957 30.1398 21.4471 29.0496C21.7308 28.4186 22.0672 27.6704 22.4599 26.8274L25.2669 27.3307V30.3737C24.2959 30.6385 23.4387 31.215 22.8272 32.0145C22.2157 32.8139 21.8837 33.7922 21.8823 34.7987V38.9914C21.8823 39.31 22.0088 39.6155 22.2341 39.8408C22.4594 40.066 22.7649 40.1926 23.0835 40.1926H25.408V37.7903H24.2845V34.7987C24.288 34.2219 24.5196 33.6699 24.9287 33.2633C25.3378 32.8567 25.8912 32.6284 26.468 32.6284C27.0448 32.6284 27.5982 32.8567 28.0073 33.2633C28.4164 33.6699 28.648 34.2219 28.6514 34.7987V37.7903H27.528V40.1926H29.8526C30.1712 40.1926 30.4767 40.066 30.702 39.8408C30.9272 39.6155 31.0538 39.31 31.0538 38.9914V34.7987C31.0524 33.7922 30.7204 32.814 30.109 32.0145C29.4975 31.215 28.6403 30.6385 27.6693 30.3737V27.7631C31.8884 28.6742 33.8543 32.3507 33.8543 39.3249V40.176H36.2566V39.3085H36.2565ZM26.9178 14.0354C27.173 14.1566 27.3885 14.3478 27.5395 14.5866C27.6904 14.8254 27.7706 15.1022 27.7706 15.3847C27.7706 15.6673 27.6904 15.944 27.5395 16.1828C27.3885 16.4217 27.173 16.6128 26.9178 16.734V14.0354ZM10.0829 16.734C9.82763 16.6128 9.61202 16.4217 9.46105 16.1829C9.31008 15.944 9.22995 15.6673 9.22995 15.3847C9.22995 15.1022 9.31008 14.8254 9.46105 14.5866C9.61202 14.3477 9.82763 14.1566 10.0829 14.0354V16.734ZM10.4691 37.7903C10.3133 37.7903 10.1611 37.7441 10.0316 37.6576C9.90209 37.5711 9.80115 37.4481 9.74154 37.3042C9.68193 37.1604 9.66633 37.002 9.6967 36.8493C9.72707 36.6965 9.80206 36.5562 9.91218 36.4461C10.0223 36.336 10.1626 36.261 10.3153 36.2306C10.4681 36.2002 10.6264 36.2158 10.7703 36.2754C10.9142 36.335 11.0372 36.4359 11.1237 36.5654C11.2102 36.6949 11.2564 36.8471 11.2564 37.0028C11.2562 37.2116 11.1732 37.4117 11.0256 37.5594C10.878 37.707 10.6778 37.79 10.4691 37.7903ZM10.3104 10.3235L10.2161 9.51875C10.0489 8.09336 10.5297 6.66461 11.57 5.49515C12.215 4.78049 13.002 4.20817 13.8807 3.8147C14.7593 3.42124 15.7103 3.21527 16.673 3.20996H20.33C22.7076 3.20996 23.2964 4.18026 23.5783 5.22873C23.6509 5.49841 23.8151 5.7344 24.0428 5.8961C25.6283 7.0216 27.1847 8.93618 26.8 10.9347L26.7222 11.34C26.4831 10.4981 26.0095 9.61437 25.2187 9.20549C24.2368 8.69587 23.1101 8.75561 22.0495 9.37189C21.9885 9.40704 21.7298 9.50642 20.9534 9.31303C20.2479 9.13742 19.4137 8.79733 18.5305 8.43738C16.2919 7.52449 13.7542 6.49052 11.9039 7.73461C11.114 8.26561 10.5861 9.12092 10.3104 10.3233V10.3235ZM20.5634 25.2121C20.0402 26.3183 19.6076 27.2807 19.2553 28.0645C18.9867 28.6619 18.7134 29.2698 18.4801 29.7519C18.2479 29.2642 17.9761 28.6481 17.7089 28.0425C17.366 27.2657 16.9448 26.3113 16.4372 25.2169V24.8977C17.7914 25.2392 19.2092 25.2392 20.5634 24.8977V25.2121ZM18.5003 22.7515C16.9053 22.7494 15.3762 22.1147 14.2485 20.9866C13.1208 19.8585 12.4867 18.3292 12.4852 16.7341V12.6323C12.4852 11.0887 12.7548 10.0573 13.2443 9.72816C13.4228 9.60804 13.6625 9.55703 13.9454 9.55703C14.9135 9.55703 16.3859 10.1572 17.6239 10.6621C19.7324 11.5215 21.7239 12.3333 23.2534 11.451C23.7212 11.1788 23.9821 11.2738 24.0896 11.3264C24.2544 11.4827 24.5155 12.1529 24.5155 12.6325V16.7344C24.5139 18.3294 23.8798 19.8587 22.7521 20.9867C21.6244 22.1147 20.0954 22.7494 18.5003 22.7515Z" fill="currentColor"/>
    </symbol>

    <symbol viewBox="0 0 41 41" id="book" xmlns="http://www.w3.org/2000/svg">
        <path d="M39.6241 8.40315L36.7501 8.40302V5.42797C36.7501 4.74685 36.2517 4.16816 35.5781 4.06738C35.4605 4.04971 32.6606 3.64303 29.2891 4.25651C25.5305 4.94039 22.5329 6.62691 20.4999 9.17649C18.4668 6.62691 15.4692 4.94039 11.7108 4.25651C8.33912 3.64317 5.53926 4.04971 5.42178 4.06738C4.74812 4.1683 4.24977 4.74699 4.24977 5.42797V8.40302H1.37577C0.616102 8.40302 0 9.01912 0 9.77893V35.7048C0 36.1503 0.215629 36.5681 0.57883 36.8263C0.94203 37.0844 1.40766 37.1507 1.82829 37.0041C1.93155 36.9683 12.2413 33.4498 19.929 36.9564C20.2918 37.122 20.7082 37.122 21.071 36.9564C28.7372 33.4597 39.069 36.9686 39.1717 37.0041C39.3191 37.0554 39.4718 37.0807 39.6239 37.0807C39.906 37.0807 40.1851 36.994 40.4212 36.8264C40.7844 36.5683 41 36.1504 41 35.7049V9.77906C40.9999 9.01926 40.3839 8.40315 39.6241 8.40315ZM2.75168 33.8639V11.1547H4.24977V29.4771C4.24977 29.8769 4.42467 30.2565 4.72713 30.5178C5.02959 30.7791 5.43186 30.8963 5.82723 30.8379C5.90315 30.8269 11.88 30.0064 16.2467 33.0024C10.8677 32.0826 5.48418 33.1465 2.75168 33.8639ZM19.1242 31.7616C17.2009 30.0239 14.6958 28.8488 11.7108 28.3058C10.2743 28.0443 8.94156 27.9681 7.87584 27.9681C7.55944 27.9681 7.2665 27.9749 7.00159 27.9855V6.69137H7.00145C9.64573 6.5721 16.0783 6.85482 19.1242 12.0182V31.7616ZM21.8757 12.0183C24.9107 6.87705 31.3533 6.58149 33.9984 6.69483V27.9855C32.8412 27.9388 31.1519 27.9667 29.2891 28.3058C26.3041 28.8488 23.799 30.0237 21.8757 31.7616V12.0183ZM24.7486 33.0032C29.1158 30.0054 35.0959 30.8268 35.1704 30.8378C35.5668 30.8973 35.9687 30.7808 36.2722 30.5196C36.5756 30.2581 36.7501 29.8777 36.7501 29.4771V11.1548H38.2482V33.8639C35.5149 33.1462 30.1291 32.0819 24.7486 33.0032Z" fill="currentColor"/>
    </symbol>

    <symbol viewBox="0 0 16 16" id="attach" xmlns="http://www.w3.org/2000/svg">
        <path d="M11.8983 6.58727C11.8983 6.58727 12.5454 6.09525 12.0528 5.60322C11.5603 5.1112 11.0814 5.74614 11.0814 5.74614L6.13008 10.6985C6.13008 10.6985 4.97043 12.1952 4.08869 11.2902C3.208 10.3842 4.67985 9.24831 4.67985 9.24831L11.1721 2.75655C11.1721 2.75655 12.6872 1.08747 14.1116 2.5108C15.5339 3.93467 13.8601 5.45293 13.8601 5.45293L6.56515 12.7478C6.56515 12.7478 4.23107 15.4442 2.07049 13.2831C-0.0900869 11.122 2.63266 8.8143 2.63266 8.8143L8.17095 3.27442C8.17095 3.27442 8.79113 2.75655 8.32652 2.29037C7.85981 1.82471 7.343 2.44594 7.343 2.44594L0.98783 8.80111C0.98783 8.80111 -1.41112 11.4321 1.26786 14.1105C3.94683 16.7906 6.57939 14.3916 6.57939 14.3916L15.314 5.65596C15.314 5.65596 17.0617 3.72847 14.9781 1.64383C12.8945 -0.440812 10.9665 1.30685 10.9665 1.30685L3.45059 8.82168C3.45059 8.82168 1.52573 10.3874 3.27234 12.133C5.01894 13.8806 6.55619 11.9273 6.55619 11.9273L11.8983 6.58727Z" fill="currentColor"/>
    </symbol>

    <symbol viewBox="0 0 28 29" id="close-modal" xmlns="http://www.w3.org/2000/svg">
        <path fill-rule="evenodd" clip-rule="evenodd" d="M11.8277 14.8306L0.565159 26.0931C-0.0331175 26.6914 -0.0331187 27.6675 0.565161 28.2658C1.16344 28.8641 2.13958 28.8641 2.73786 28.2658L14.0004 17.0033L25.2624 28.2653C25.8607 28.8636 26.8368 28.8636 27.4351 28.2653C28.0334 27.6671 28.0333 26.6909 27.4351 26.0926L16.1731 14.8306L27.4352 3.56846C28.0335 2.97018 28.0335 1.99404 27.4352 1.39576C26.8369 0.797483 25.8608 0.797482 25.2625 1.39576L14.0004 12.6579L2.73771 1.39527C2.13943 0.796994 1.16329 0.796993 0.565011 1.39527C-0.0332682 1.99355 -0.0332681 2.96969 0.56501 3.56797L11.8277 14.8306Z" fill="currentColor"/>
    </symbol>

    <symbol viewBox="0 0 47 37" id="email" xmlns="http://www.w3.org/2000/svg">
        <path fill-rule="evenodd" clip-rule="evenodd" d="M5.74736 0.616211H41.2624C44.4326 0.616211 47.0097 3.20301 47 6.3733V30.6367C47 33.807 44.4229 36.3841 41.2526 36.3841H5.74736C2.57707 36.3841 0 33.807 0 30.6367V6.36357C0 3.19329 2.57707 0.616211 5.74736 0.616211ZM41.2624 33.7584C42.9837 33.7584 44.384 32.358 44.384 30.6367H44.3743V6.3733C44.3743 4.65201 42.9739 3.25163 41.2526 3.25163H5.74736C4.02607 3.25163 2.6257 4.65201 2.6257 6.3733V30.6367C2.6257 32.358 4.02607 33.7584 5.74736 33.7584H41.2624ZM41.136 7.89051L29.6413 18.1988L41.1846 29.1587C41.7098 29.6546 41.7292 30.491 41.2332 31.0161C40.9707 31.2884 40.6303 31.4245 40.2802 31.4245C39.9593 31.4245 39.6287 31.3078 39.3758 31.0647L27.6866 19.959L24.4093 22.8959C24.1662 23.1196 23.8453 23.2363 23.5341 23.2363C23.2229 23.2363 22.9117 23.1293 22.6589 22.9056L19.4691 20.0562L7.71184 31.055C7.45899 31.2884 7.13807 31.4051 6.81715 31.4051C6.46706 31.4051 6.11697 31.2592 5.8544 30.9869C5.35843 30.4521 5.38761 29.6255 5.91275 29.1295L17.495 18.2863L5.86412 7.89051C5.31953 7.40427 5.27091 6.57766 5.75715 6.03307C6.24339 5.48848 7.07 5.43985 7.61459 5.9261L20.1985 17.1874C20.2763 17.2458 20.3444 17.3041 20.4124 17.3722C20.4124 17.3819 20.4222 17.3916 20.4319 17.4014L23.5244 20.1632L39.3758 5.93582C39.9204 5.44958 40.747 5.4982 41.2332 6.03307C41.7195 6.57766 41.6709 7.40427 41.136 7.89051Z" fill="currentColor"/>
    </symbol>

    <symbol viewBox="0 0 45 38" id="file" xmlns="http://www.w3.org/2000/svg">
        <path fill-rule="evenodd" clip-rule="evenodd" d="M29.7223 2.82049C31.7837 4.43064 33.248 6.68329 33.8828 9.22076C36.866 9.53335 39.6167 10.975 41.5713 13.2503C43.5258 15.5256 44.5362 18.4622 44.3953 21.4585C44.2545 24.4547 42.9731 27.2836 40.8138 29.3655C38.6544 31.4475 35.7806 32.6247 32.7813 32.6561H28.375C27.9855 32.6561 27.6119 32.5014 27.3364 32.2259C27.061 31.9505 26.9063 31.5769 26.9063 31.1874C26.9063 30.7978 27.061 30.4243 27.3364 30.1488C27.6119 29.8734 27.9855 29.7186 28.375 29.7186H32.7813C35.1185 29.7186 37.36 28.7902 39.0126 27.1375C40.6653 25.4848 41.5938 23.2434 41.5938 20.9061C41.5938 18.5689 40.6653 16.3274 39.0126 14.6748C37.36 13.0221 35.1185 12.0936 32.7813 12.0936C32.414 12.0994 32.0561 11.9775 31.7686 11.7487C31.4812 11.52 31.2821 11.1985 31.2053 10.8393C30.9062 8.74204 29.8605 6.82306 28.2603 5.43481C26.66 4.04656 24.6126 3.28226 22.4941 3.28226C20.3756 3.28226 18.3283 4.04656 16.728 5.43481C15.1277 6.82306 14.0821 8.74204 13.783 10.8393C13.717 11.2115 13.5152 11.5458 13.2167 11.7776C12.9182 12.0094 12.5442 12.122 12.1674 12.0936C9.83013 12.1004 7.59135 13.0354 5.9435 14.6929C4.29566 16.3504 3.37374 18.5946 3.38056 20.9318C3.38737 23.2691 4.32237 25.5078 5.97985 27.1557C6.80055 27.9716 7.77393 28.6179 8.8444 29.0577C9.91488 29.4974 11.0615 29.722 12.2188 29.7186H16.625C17.0145 29.7186 17.3881 29.8734 17.6636 30.1488C17.939 30.4243 18.0938 30.7978 18.0938 31.1874C18.0938 31.5769 17.939 31.9505 17.6636 32.2259C17.3881 32.5014 17.0145 32.6561 16.625 32.6561H12.2188C9.19729 32.6571 6.29158 31.494 4.1052 29.4086C1.91882 27.3232 0.619829 24.4757 0.478043 21.4575C0.336258 18.4394 1.36258 15.4826 3.34382 13.2014C5.32507 10.9202 8.10895 9.48986 11.1172 9.20754C11.7549 6.67081 13.2219 4.41986 15.2851 2.81211C17.3483 1.20436 19.8895 0.331979 22.5052 0.333498C25.1208 0.335017 27.661 1.21035 29.7223 2.82049ZM29.8385 22.3571C29.4534 22.3604 29.0824 22.2124 28.8054 21.9448L23.9688 17.1082V35.5939C23.9688 35.9835 23.814 36.357 23.5386 36.6325C23.2631 36.9079 22.8896 37.0627 22.5 37.0627C22.1105 37.0627 21.7369 36.9079 21.4615 36.6325C21.186 36.357 21.0313 35.9835 21.0313 35.5939V17.1082L16.1947 21.9448C15.9177 22.2124 15.5467 22.3604 15.1616 22.3571C14.7765 22.3537 14.4081 22.1993 14.1358 21.9269C13.8634 21.6546 13.709 21.2862 13.7056 20.9011C13.7023 20.516 13.8503 20.145 14.1179 19.868L21.4616 12.5243C21.737 12.2489 22.1106 12.0942 22.5 12.0942C22.8895 12.0942 23.263 12.2489 23.5384 12.5243L30.8822 19.868C31.1497 20.145 31.2978 20.516 31.2944 20.9011C31.2911 21.2862 31.1366 21.6546 30.8643 21.9269C30.592 22.1993 30.2236 22.3537 29.8385 22.3571Z" fill="currentColor"/>
    </symbol>



    <symbol viewBox="" id="id" xmlns="http://www.w3.org/2000/svg">
        
    </symbol>
</svg>