<svg width="337" height="473" viewBox="0 0 337 473" fill="none" xmlns="http://www.w3.org/2000/svg">
<path d="M56.3293 21.2412L126.805 42.7458L155.5 17.3955L166.247 54.4399L226.974 70.8692L174.577 77.2526L186.665 120.942L134.925 82.7203L65.6052 90.9872L106.624 58.3641L56.3293 21.2412Z" fill="#F2FAFA"/>
<path d="M201.294 18.1125L246.716 24.228L243.335 0L272.349 26.6482L309.121 32.2433L290.46 45.8797L323.065 73.725L278.22 53.5047L253.111 70.1598L248.629 37.9946L201.294 18.1125Z" fill="#F2FAFA"/>
<path d="M345.777 473L322.562 378.52L246.855 364.498L312.308 332.153L295.808 270.877L342.394 316.932L386.506 294.726L373.312 348.364L426.611 400.153L364.463 388.111L345.777 473Z" fill="#F2FAFA"/>
<path d="M154.418 323.893L114.334 243.556L0 249.591L91.8529 201.388L62.5654 137.51L138.275 176.15L197.215 142.761L182.689 198.201L255.138 234.725L173.457 239.01L154.418 323.893Z" fill="#F2FAFA"/>
</svg>
