<svg width="358" height="484" viewBox="0 0 358 484" fill="none" xmlns="http://www.w3.org/2000/svg">
<path d="M300.427 21.7104L228.396 43.6896L199.068 17.7798L188.084 55.6419L126.016 72.4338L179.57 78.9581L167.215 123.612L220.097 84.5464L290.947 92.9959L249.023 59.6527L300.427 21.7104Z" fill="#F2FAFA"/>
<path d="M152.263 18.5123L105.839 24.7628L109.294 0L79.6396 27.2364L42.0557 32.955L61.1289 46.8924L27.8043 75.3524L73.6391 54.6857L99.3023 71.7084L103.883 38.8332L152.263 18.5123Z" fill="#F2FAFA"/>
<path d="M4.59097 483.44L28.3179 386.875L105.697 372.543L38.7982 339.484L55.6625 276.856L8.04894 323.927L-37.0376 301.231L-23.5515 356.054L-78.0278 408.985L-14.5076 396.678L4.59097 483.44Z" fill="#F2FAFA"/>
<path d="M200.173 331.042L241.143 248.931L358 255.1L264.12 205.833L294.054 140.545L216.673 180.038L156.432 145.912L171.279 202.575L97.23 239.906L180.715 244.285L200.173 331.042Z" fill="#F2FAFA"/>
</svg>
