<svg width="677" height="631" viewBox="0 0 677 631" fill="none" xmlns="http://www.w3.org/2000/svg">
<path d="M75.0996 28.3196L169.059 56.99L207.316 23.1924L221.645 72.5809L302.607 94.4848L232.75 102.995L248.866 161.243L179.885 110.285L87.4664 121.307L142.154 77.8127L75.0996 28.3196Z" fill="#0099DB"/>
<path d="M268.37 24.148L328.927 32.3014L324.42 0L363.102 35.5281L412.128 42.9876L387.248 61.168L430.718 98.292L370.93 71.3337L337.454 93.5387L331.478 50.6553L268.37 24.148Z" fill="#0099DB"/>
<path d="M460.998 630.615L430.048 504.651L329.113 485.957L416.377 442.834L394.379 361.14L456.487 422.541L515.299 392.935L497.708 464.447L568.768 533.493L485.911 517.439L460.998 630.615Z" fill="#0099DB"/>
<path d="M205.874 431.822L152.432 324.714L0 332.76L122.461 268.495L83.4136 183.331L184.351 234.848L262.932 190.332L243.565 264.246L340.157 312.941L231.256 318.653L205.874 431.822Z" fill="#0099DB"/>
<path d="M594.839 452.453L591.879 378.167L540.054 333.18L589.58 343.041L587.247 291.563L619.254 345.848L658.436 353.533L638.654 385.816L677 455.015L624.339 407.046L594.839 452.453Z" fill="#0099DB"/>
</svg>
