<svg width="232" height="170" viewBox="0 0 232 170" fill="none" xmlns="http://www.w3.org/2000/svg">
<path d="M138.611 155.149L108.442 94.4973L106.979 91.5575L103.7 91.7311L22.5105 96.0299L85.8518 62.6877L90.036 60.4852L88.0703 56.1847L67.4202 11.0073L123.456 39.6946L125.859 40.9244L128.205 39.5911L171.497 14.9913L161.283 54.0923L160.263 57.9969L163.865 59.818L212.996 84.6628L157.463 87.5847L153.674 87.7841L152.846 91.4867L138.611 155.149Z" stroke="url(#paint0_linear_439_740)" stroke-opacity="0.3" stroke-width="10"/>
<path fill-rule="evenodd" clip-rule="evenodd" d="M108.747 90.4768C108.429 91.127 108.429 91.8729 108.747 92.5233L111.693 98.5508C113.334 101.907 112.034 105.907 108.734 107.658L102.808 110.803C102.168 111.142 101.73 111.745 101.605 112.458L100.446 119.066C99.8002 122.746 96.3985 125.218 92.6988 124.695L86.0559 123.755C85.3392 123.654 84.63 123.884 84.1097 124.388L79.2877 129.052C77.9456 130.351 76.2223 131 74.4999 131C72.777 131 71.0547 130.351 69.7121 129.052L64.8902 124.388C64.3699 123.884 63.6604 123.653 62.944 123.755L56.3011 124.695C55.9695 124.742 55.6397 124.764 55.3146 124.764C52.0137 124.765 49.1416 122.416 48.5541 119.066L47.395 112.458C47.2699 111.745 46.8315 111.142 46.1921 110.803L40.2656 107.658C36.9658 105.907 35.666 101.907 37.3065 98.551L40.253 92.5236C40.5708 91.8734 40.5708 91.1275 40.253 90.4771L37.3067 84.4497C35.6662 81.0936 36.966 77.0932 40.2658 75.3426L46.1923 72.198C46.8315 71.8587 47.2699 71.2553 47.395 70.5424L48.5541 63.9344C49.1995 60.255 52.6017 57.7823 56.301 58.3058L62.9439 59.2455C63.6607 59.3464 64.3697 59.1163 64.89 58.613L69.7121 53.9479C72.3968 51.3503 76.6029 51.3505 79.2878 53.9479L84.1097 58.6126C84.6299 59.1157 85.3389 59.3462 86.0559 59.245L92.6988 58.3054C96.3968 57.7821 99.8002 60.2546 100.446 63.9339L101.605 70.5423C101.73 71.2549 102.168 71.8586 102.808 72.1977L108.734 75.3422C112.034 77.093 113.334 81.0932 111.693 84.4493L108.747 90.4768ZM100.672 106.777L106.599 103.633C107.715 103.041 108.155 101.687 107.6 100.551L104.653 94.5239C103.714 92.6021 103.714 90.3975 104.653 88.4758L107.6 82.4483C108.155 81.3129 107.715 79.9596 106.598 79.3672L100.672 76.2227C98.7822 75.2202 97.4864 73.4367 97.1167 71.3296L95.9577 64.7213C95.7393 63.4764 94.5875 62.64 93.3366 62.817L86.6937 63.7566C84.5757 64.0564 82.479 63.3751 80.9414 61.8876L76.1195 57.223C75.211 56.3444 73.7879 56.3444 72.8798 57.223L68.0577 61.8876C66.5201 63.3749 64.4231 64.0564 62.3054 63.7566L55.6625 62.817C54.4107 62.6401 53.2599 63.4764 53.0415 64.7213L51.8824 71.3295C51.5129 73.4365 50.2169 75.2199 48.3274 76.2227L42.4009 79.3672C41.2844 79.9596 40.8447 81.3129 41.3997 82.4483L44.3461 88.4759C45.2855 90.3978 45.2855 92.6021 44.3461 94.524L41.3997 100.552C40.8447 101.687 41.2844 103.04 42.4009 103.633L48.3274 106.777C50.2171 107.78 51.5129 109.563 51.8825 111.67L53.0418 118.279C53.2603 119.524 54.4121 120.36 55.6628 120.183L62.3057 119.243C62.6337 119.197 62.9613 119.174 63.2863 119.174C65.0597 119.174 66.7585 119.855 68.058 121.112L72.8799 125.777C73.7884 126.656 75.2115 126.656 76.1197 125.777L80.9417 121.112C82.4793 119.625 84.5755 118.943 86.694 119.243L93.3369 120.183C94.5887 120.36 95.7396 119.524 95.958 118.279L97.117 111.671C97.4866 109.564 98.7825 107.78 100.672 106.777ZM87.9244 74.8538C88.814 73.9641 90.2567 73.9641 91.1462 74.8538C92.036 75.7436 92.036 77.186 91.1461 78.0758L61.0755 108.146C60.6308 108.591 60.0476 108.814 59.4646 108.814C58.8817 108.814 58.2986 108.591 57.8538 108.146C56.9641 107.257 56.9641 105.814 57.8538 104.925L87.9244 74.8538ZM65.3871 70.9963C60.7811 70.9963 57.0337 74.7437 57.0337 79.3498C57.0337 83.9558 60.7811 87.7032 65.3871 87.7032C69.9932 87.7032 73.7406 83.9558 73.7406 79.3498C73.7406 74.7437 69.9932 70.9963 65.3871 70.9963ZM65.3871 83.1467C63.2935 83.1467 61.5902 81.4434 61.5902 79.3496C61.5902 77.256 63.2935 75.5527 65.3871 75.5527C67.4808 75.5527 69.1842 77.256 69.1842 79.3496C69.184 81.4434 67.4808 83.1467 65.3871 83.1467ZM75.2593 103.65C75.2593 99.0443 79.0067 95.2969 83.6127 95.2969C88.2188 95.2969 91.9661 99.0443 91.9661 103.65C91.9661 108.256 88.2188 112.004 83.6127 112.004C79.0067 112.004 75.2593 108.256 75.2593 103.65ZM79.8156 103.65C79.8156 105.744 81.5191 107.447 83.6127 107.447C85.7063 107.447 87.4096 105.744 87.4096 103.65C87.4096 101.557 85.7063 99.8534 83.6127 99.8534C81.5189 99.8534 79.8156 101.557 79.8156 103.65Z" fill="#0099DB"/>
<defs>
<linearGradient id="paint0_linear_439_740" x1="180" y1="9.00002" x2="73" y2="148.5" gradientUnits="userSpaceOnUse">
<stop stop-color="#0099DB"/>
<stop offset="1" stop-color="white" stop-opacity="0"/>
</linearGradient>
</defs>
</svg>
