<svg width="70" height="70" viewBox="0 0 70 70" fill="none" xmlns="http://www.w3.org/2000/svg">
<path d="M35 0C15.701 0 0 15.7012 0 35.0002C0 54.2992 15.701 70 35 70C54.299 70 70 54.2992 70 35.0002C70 15.7012 54.299 0 35 0ZM35 63.6364C19.2097 63.6364 6.36364 50.7903 6.36364 35.0002C6.36364 19.2101 19.2097 6.36364 35 6.36364C50.7903 6.36364 63.6364 19.2101 63.6364 35.0002C63.6364 50.7903 50.7901 63.6364 35 63.6364Z" fill="url(#paint0_linear_93_1594)"/>
<path d="M34.9996 14.8484C32.6608 14.8484 30.7581 16.7524 30.7581 19.0927C30.7581 21.4309 32.6608 23.3332 34.9996 23.3332C37.3385 23.3332 39.2412 21.4309 39.2412 19.0927C39.2412 16.7524 37.3385 14.8484 34.9996 14.8484Z" fill="url(#paint1_linear_93_1594)"/>
<path d="M34.9999 29.697C33.2427 29.697 31.8181 31.1216 31.8181 32.8788V51.9697C31.8181 53.727 33.2427 55.1516 34.9999 55.1516C36.7571 55.1516 38.1818 53.727 38.1818 51.9697V32.8788C38.1818 31.1216 36.7571 29.697 34.9999 29.697Z" fill="url(#paint2_linear_93_1594)"/>
<defs>
<linearGradient id="paint0_linear_93_1594" x1="35" y1="0" x2="35" y2="70" gradientUnits="userSpaceOnUse">
<stop stop-color="white"/>
<stop offset="1" stop-color="white" stop-opacity="0"/>
</linearGradient>
<linearGradient id="paint1_linear_93_1594" x1="34.9996" y1="14.8484" x2="34.9996" y2="23.3332" gradientUnits="userSpaceOnUse">
<stop stop-color="white"/>
<stop offset="1" stop-color="white" stop-opacity="0"/>
</linearGradient>
<linearGradient id="paint2_linear_93_1594" x1="34.9999" y1="29.697" x2="34.9999" y2="55.1516" gradientUnits="userSpaceOnUse">
<stop stop-color="white"/>
<stop offset="1" stop-color="white" stop-opacity="0"/>
</linearGradient>
</defs>
</svg>
