<svg width="128" height="74" viewBox="0 0 128 74" fill="none" xmlns="http://www.w3.org/2000/svg">
<path d="M47.3105 18.7519V23.238H47.5353C47.8298 23.2634 48.1261 23.2163 48.3973 23.1009C48.6684 22.9855 48.9058 22.8055 49.0879 22.5773C49.4564 21.99 49.6669 21.3207 49.6998 20.632H50.0203V26.4109H49.6998C49.6604 25.8735 49.5193 25.3479 49.2835 24.8612C49.1294 24.519 48.8685 24.2334 48.5385 24.0455C48.1516 23.8872 47.7334 23.8161 47.3147 23.8375V26.937C47.2944 27.3124 47.3195 27.6889 47.3896 28.0585C47.448 28.1988 47.5518 28.3163 47.6852 28.3929C47.9029 28.4948 48.1438 28.5398 48.3844 28.5234H49.0546C49.9559 28.6022 50.8548 28.3486 51.5753 27.8123C52.2959 27.276 52.7863 26.4956 52.9507 25.6238H53.2629L52.7467 29.1311H43.0232V28.8252H43.3937C43.6681 28.8375 43.9409 28.7784 44.1845 28.6539C44.3391 28.5697 44.4574 28.4336 44.5175 28.2706C44.5998 27.9343 44.6306 27.588 44.6091 27.2429V20.004C44.6209 19.6975 44.607 19.3906 44.5675 19.0864C44.5219 18.9103 44.4124 18.7566 44.2594 18.6541C44.0037 18.4876 43.7002 18.4061 43.3937 18.4216H43.0232V18.1157H52.4304V21.3783H52.1098C52.0271 20.7643 51.7959 20.1784 51.4355 19.6695C51.1075 19.2967 50.6723 19.0295 50.1868 18.9028C49.6162 18.777 49.0311 18.7263 48.4469 18.7519H47.3105Z" fill="#0099DB"/>
<path d="M54.4241 18.1157H60.2266V18.4216H59.9227C59.6165 18.399 59.309 18.445 59.0236 18.5562C58.8693 18.6366 58.7475 18.766 58.6781 18.9232C58.5823 19.31 58.5472 19.7088 58.5741 20.1059V25.5014C58.5279 26.1635 58.6055 26.8283 58.803 27.4631C58.9616 27.8025 59.2214 28.0868 59.5481 28.2787C59.95 28.5046 60.4088 28.6149 60.8718 28.5969C61.4188 28.6117 61.9583 28.47 62.4244 28.189C62.8519 27.9211 63.187 27.5331 63.3859 27.0757C63.6478 26.2868 63.7565 25.4568 63.7064 24.6287V20.1426C63.7279 19.7836 63.6741 19.4241 63.5482 19.0864C63.463 18.8995 63.3165 18.7459 63.132 18.65C62.8016 18.5048 62.4405 18.4391 62.0789 18.4583V18.1524H65.9666V18.4583H65.7377C65.4633 18.4481 65.1912 18.5116 64.951 18.6418C64.7368 18.7732 64.574 18.9715 64.4889 19.2046C64.406 19.5103 64.3723 19.8268 64.389 20.1426V24.3228C64.4284 25.2669 64.3388 26.2119 64.1226 27.1328C63.8919 27.7797 63.4539 28.3362 62.8739 28.7192C62.0554 29.2443 61.0868 29.4987 60.11 29.4451C59.3383 29.4831 58.5676 29.3521 57.854 29.0618C57.2087 28.7857 56.6684 28.3177 56.3097 27.7241C55.983 27.0415 55.8302 26.2914 55.8643 25.5382V20.1059C55.8906 19.7086 55.8541 19.3096 55.7561 18.9232C55.6772 18.7633 55.5471 18.633 55.3856 18.5521C55.0753 18.4368 54.7422 18.3922 54.4116 18.4216L54.4241 18.1157Z" fill="#0099DB"/>
<path d="M70.8118 24.1271V27.2061C70.783 27.5865 70.8224 27.9688 70.9283 28.3358C71.011 28.5002 71.1493 28.6313 71.3196 28.7069C71.6566 28.8199 72.0132 28.8657 72.3685 28.8415V29.1474H66.616V28.8415C66.9731 28.8665 67.3315 28.8193 67.6691 28.7029C67.8369 28.6236 67.9741 28.4935 68.0604 28.3317C68.1623 27.9654 68.2003 27.5849 68.1728 27.2061V20.057C68.2003 19.6782 68.1623 19.2977 68.0604 18.9313C67.9698 18.764 67.8227 18.6328 67.6442 18.5602C67.3077 18.4447 66.9508 18.3976 66.5952 18.4216V18.1157H71.8233C72.8262 18.079 73.8297 18.1722 74.8078 18.393C75.4169 18.5677 75.9552 18.9241 76.3479 19.4126C76.7652 19.9068 76.9921 20.5289 76.9889 21.1703C76.9988 21.5508 76.9235 21.9287 76.7681 22.2775C76.6128 22.6263 76.3812 22.9375 76.0898 23.1891C75.6297 23.5683 75.0803 23.829 74.4914 23.9476L77.1928 27.6751C77.4135 28.0035 77.6703 28.3072 77.9587 28.5805C78.1833 28.7507 78.4574 28.8465 78.7413 28.8538V29.1596H75.1949L71.5777 24.1271H70.8118ZM70.8118 18.7111V23.5398H71.2863C71.8699 23.5645 72.4536 23.4942 73.0137 23.3318C73.3947 23.1979 73.7129 22.9326 73.9087 22.5855C74.1435 22.1519 74.2556 21.6647 74.2333 21.1744C74.2901 20.5022 74.0765 19.8348 73.6381 19.3147C73.2385 18.9123 72.5919 18.7111 71.6984 18.7111H70.8118Z" fill="#0099DB"/>
<path d="M85.1431 17.8629C85.9464 17.8304 86.7481 17.9582 87.4994 18.2386C88.2508 18.5191 88.9361 18.9462 89.5137 19.4942C90.0612 20.0262 90.4915 20.6626 90.7779 21.3641C91.0643 22.0656 91.2007 22.8172 91.1787 23.5724C91.2039 24.9074 90.7634 26.2109 89.9299 27.2673C88.82 28.673 87.2563 29.3771 85.2389 29.3799C83.2214 29.3826 81.6577 28.7029 80.5478 27.3407C79.6654 26.2747 79.1978 24.9365 79.2283 23.5643C79.2107 22.806 79.3532 22.0523 79.6468 21.3505C79.9405 20.6487 80.379 20.0139 80.9349 19.486C81.489 18.9523 82.1472 18.5334 82.8703 18.2546C83.5933 17.9757 84.3663 17.8425 85.1431 17.8629ZM85.2347 18.4909C84.2107 18.4909 83.4282 19.0048 82.8954 20.0366C82.4542 20.8767 82.2336 22.0879 82.2336 23.6703C82.2336 25.5572 82.5707 26.9479 83.245 27.8424C83.6396 28.3339 84.2086 28.6618 84.8388 28.7608C85.469 28.8598 86.1141 28.7226 86.6458 28.3766C87.1918 27.9538 87.5904 27.3752 87.7863 26.7208C88.09 25.7574 88.2306 24.7517 88.2025 23.7437C88.251 22.641 88.1103 21.5382 87.7863 20.4811C87.5951 19.8805 87.2273 19.3485 86.729 18.9518C86.2942 18.6451 85.7704 18.4835 85.2347 18.4909Z" fill="#0099DB"/>
<path d="M102.521 25.2771L102.105 29.1474H92.1152V28.8415H92.4857C92.7574 28.853 93.0273 28.7939 93.2682 28.6703C93.4225 28.5868 93.5397 28.4502 93.5971 28.2869C93.6838 27.9514 93.7161 27.6046 93.6928 27.2592V20.004C93.7148 19.6509 93.6853 19.2967 93.6054 18.9518C93.5249 18.7942 93.3971 18.6647 93.2391 18.5806C93.0064 18.4642 92.7467 18.4093 92.4857 18.4216H92.1152V18.1157H98.1133V18.4216H97.618C97.3463 18.4102 97.0764 18.4693 96.8355 18.5929C96.6751 18.6839 96.5538 18.8288 96.4941 19.0007C96.4091 19.3337 96.3782 19.6778 96.4026 20.0203V27.0512C96.3817 27.4114 96.4139 27.7726 96.4983 28.1238C96.5361 28.2043 96.5897 28.2768 96.6561 28.337C96.7226 28.3972 96.8005 28.4439 96.8854 28.4745C97.218 28.5412 97.5579 28.5659 97.8969 28.5479H98.8335C99.3498 28.5646 99.8626 28.4582 100.328 28.238C100.754 28.0089 101.111 27.6724 101.36 27.2633C101.726 26.6462 102.007 25.9837 102.193 25.2935L102.521 25.2771Z" fill="#0099DB"/>
<path d="M107.758 18.7519V23.238H107.987C108.281 23.2631 108.576 23.2158 108.847 23.1004C109.117 22.985 109.354 22.8052 109.535 22.5773C109.904 21.9899 110.116 21.3209 110.151 20.632H110.468V26.4109H110.151C110.11 25.8738 109.969 25.3486 109.735 24.8612C109.582 24.5193 109.323 24.2337 108.994 24.0455C108.606 23.8873 108.186 23.8162 107.766 23.8375V26.937C107.744 27.3126 107.77 27.6895 107.845 28.0585C107.902 28.1985 108.004 28.3161 108.137 28.3929C108.356 28.4948 108.598 28.5397 108.84 28.5234H109.51C110.412 28.6022 111.31 28.3486 112.031 27.8123C112.751 27.276 113.242 26.4956 113.406 25.6238H113.714L113.198 29.1311H103.47V28.8252H103.841C104.117 28.8375 104.391 28.7784 104.636 28.6539C104.789 28.5693 104.906 28.4331 104.965 28.2706C105.049 27.9347 105.08 27.588 105.056 27.2429V20.004C105.068 19.6975 105.054 19.3906 105.015 19.0864C104.969 18.9103 104.86 18.7566 104.707 18.6541C104.451 18.4871 104.148 18.4056 103.841 18.4216H103.47V18.1157H112.89V21.3783H112.574C112.492 20.7634 112.259 20.1771 111.895 19.6695C111.567 19.2967 111.132 19.0295 110.647 18.9028C110.076 18.7768 109.491 18.726 108.907 18.7519H107.758Z" fill="#0099DB"/>
<path d="M121.552 22.3408L125.511 27.198C125.912 27.7313 126.398 28.198 126.951 28.5805C127.229 28.7516 127.551 28.8421 127.879 28.8415V29.1474H122.027V28.8415C122.273 28.8404 122.516 28.7817 122.734 28.6703C122.785 28.6386 122.826 28.5952 122.855 28.544C122.884 28.4927 122.9 28.4352 122.901 28.3766C122.901 28.1482 122.647 27.72 122.139 27.0838L119.55 23.915L119.134 24.2494V27.2592C119.107 27.6199 119.142 27.9825 119.238 28.3318C119.323 28.4867 119.456 28.612 119.617 28.6906C119.903 28.8103 120.214 28.862 120.524 28.8415V29.1474H114.867V28.8415H115.238C115.513 28.8538 115.788 28.7947 116.033 28.6703C116.186 28.5856 116.303 28.4494 116.362 28.2869C116.446 27.951 116.477 27.6043 116.453 27.2592V20.004C116.477 19.6507 116.446 19.296 116.362 18.9518C116.279 18.7941 116.15 18.6647 115.991 18.5806C115.758 18.4642 115.499 18.4093 115.238 18.4216H114.867V18.1157H120.466V18.4216C120.168 18.4051 119.871 18.4597 119.6 18.5806C119.447 18.6695 119.328 18.8038 119.259 18.964C119.163 19.3022 119.128 19.654 119.155 20.004V23.4379L123.317 20.1263C123.9 19.6695 124.195 19.3107 124.195 19.0252C124.191 18.9172 124.154 18.8128 124.09 18.725C124.026 18.6373 123.936 18.5701 123.833 18.5317C123.537 18.4543 123.232 18.4172 122.926 18.4216V18.1157H127.313V18.4216C126.994 18.43 126.68 18.4992 126.389 18.6255C125.848 18.9679 125.33 19.3453 124.84 19.7552L121.552 22.3408Z" fill="#0099DB"/>
<path d="M9.11157 3.36855L20.2753 6.72088L24.8207 2.76904L26.5232 8.54386L36.1426 11.105L27.8427 12.1001L29.7574 18.9108L21.5615 12.9525L10.5809 14.2412L17.0785 9.1556L9.11157 3.36855Z" fill="#0099DB"/>
<path opacity="0.76" d="M32.1841 2.83847L39.3976 3.79686L38.8607 0L43.4685 4.17614L49.3085 5.05296L46.3448 7.18997L51.5229 11.5537L44.4009 8.3849L40.4133 10.995L39.7015 5.95426L32.1841 2.83847Z" fill="#009640"/>
<path d="M55.1028 73.9999L51.3898 59.2163L39.2812 57.0222L49.7498 51.961L47.1108 42.373L54.5616 49.5793L61.617 46.1047L59.5067 54.4977L68.0314 62.6012L58.0914 60.7171L55.1028 73.9999Z" fill="#0099DB"/>
<path d="M24.6459 50.6846L18.2482 38.144L0 39.0861L14.6602 31.5617L9.98575 21.5903L22.0694 27.6221L31.4765 22.4101L29.158 31.0641L40.7214 36.7655L27.6845 37.4344L24.6459 50.6846Z" fill="#009640"/>
<path d="M71.0324 53.005L70.6786 44.3713L64.4849 39.143L70.4039 40.289L70.125 34.3062L73.9503 40.6152L78.6331 41.5084L76.2688 45.2604L80.8517 53.3027L74.558 47.7277L71.0324 53.005Z" fill="#009640"/>
</svg>
