<svg width="232" height="170" viewBox="0 0 232 170" fill="none" xmlns="http://www.w3.org/2000/svg">
<path d="M138.611 155.149L108.442 94.4973L106.979 91.5575L103.7 91.7311L22.5105 96.0299L85.8518 62.6877L90.036 60.4852L88.0703 56.1847L67.4202 11.0073L123.456 39.6946L125.859 40.9244L128.205 39.5911L171.497 14.9913L161.283 54.0923L160.263 57.9969L163.865 59.818L212.996 84.6628L157.463 87.5847L153.674 87.7841L152.846 91.4867L138.611 155.149Z" stroke="url(#paint0_linear_439_739)" stroke-opacity="0.3" stroke-width="10"/>
<g clip-path="url(#clip0_439_739)">
<path d="M133 101.097C133 98.6026 132.057 96.5029 130.503 95.0033C131.274 93.7114 131.717 92.2034 131.717 90.5936C131.717 85.8014 127.823 82.3754 123.037 82.3754H102.084L102.696 78.8722C103.647 74.4281 103.61 68.6691 102.848 63.5118C101.99 57.7288 97.0559 52 91.632 52H91.3181C86.0002 52 82.3743 56.1409 82.3743 62.1251C82.3743 70.6987 80.8809 75.6774 78.6874 77.93C77.8191 78.8214 77.121 79.0382 76.8846 79.0271L76.4613 79.0004H75.6256V78.9994C75.6256 77.1355 74.1146 75.6244 72.2506 75.6244H55.3752C53.5113 75.6244 52.0002 77.1355 52.0002 78.9994V129.625C52.0002 131.489 53.5113 133 55.3752 133H72.2505C74.1141 133 75.6248 131.489 75.6255 129.626H116.449C121.227 129.626 125.096 126.08 125.096 121.296C125.096 120.303 124.928 119.354 124.62 118.473C127.257 117.078 129.034 114.385 129.034 111.138C129.034 110.164 128.874 109.233 128.578 108.369C131.218 107 133 104.347 133 101.097ZM58.7504 82.3744H68.8742C68.8742 82.3747 68.8742 82.375 68.8742 82.3754V126.25H58.7504V82.3744ZM124.356 102.626H120.422C120.415 102.626 120.408 102.625 120.401 102.625H112.75C110.886 102.625 109.375 104.136 109.375 106C109.375 107.864 110.886 109.375 112.75 109.375H120.358C120.372 109.375 120.386 109.376 120.401 109.376C121.498 109.376 122.284 110.137 122.284 111.137C122.284 112.076 121.558 112.751 120.401 112.751H117.786C117.779 112.751 117.773 112.75 117.766 112.75H109.375C107.512 112.75 106.001 114.261 106.001 116.125C106.001 117.989 107.512 119.5 109.375 119.5H116.405C116.42 119.5 116.434 119.501 116.449 119.501C117.535 119.501 118.345 120.289 118.345 121.296C118.345 122.214 117.624 122.876 116.449 122.876H75.6255V85.7503H76.3293C78.5328 85.8891 81.1585 85.0674 83.5232 82.6391C87.1349 78.9304 89.1243 72.2982 89.1243 62.1251C89.1243 59.6842 89.9422 58.7501 91.3181 58.7501H91.632C93.2155 58.7501 95.755 61.6989 96.1709 64.5006C96.824 68.9221 96.8561 73.907 96.0703 77.5868L94.7434 85.1697C94.3827 87.2346 95.9719 89.1255 98.0681 89.1255H123.037C124.274 89.1255 124.967 89.7354 124.967 90.5936C124.967 91.6332 124.095 92.5005 123.037 92.5005H120.422C120.415 92.5005 120.408 92.4995 120.401 92.4995H112.75C110.886 92.4995 109.375 94.0105 109.375 95.8745C109.375 97.7385 110.886 99.2495 112.75 99.2495H119.042C119.056 99.2497 119.07 99.2505 119.085 99.2505H123.907C125.475 99.2505 126.25 99.922 126.25 101.097C126.25 101.995 125.552 102.626 124.356 102.626Z" fill="#0099DB"/>
</g>
<defs>
<linearGradient id="paint0_linear_439_739" x1="180" y1="9.00002" x2="73" y2="148.5" gradientUnits="userSpaceOnUse">
<stop stop-color="#0099DB"/>
<stop offset="1" stop-color="white" stop-opacity="0"/>
</linearGradient>
<clipPath id="clip0_439_739">
<rect width="81" height="81" fill="white" transform="translate(52 52)"/>
</clipPath>
</defs>
</svg>
