<svg width="232" height="170" viewBox="0 0 232 170" fill="none" xmlns="http://www.w3.org/2000/svg">
<path d="M138.611 155.149L108.442 94.4973L106.979 91.5575L103.7 91.7311L22.5105 96.0299L85.8518 62.6877L90.036 60.4852L88.0703 56.1847L67.4202 11.0073L123.456 39.6946L125.859 40.9244L128.205 39.5911L171.497 14.9913L161.283 54.0923L160.263 57.9969L163.865 59.818L212.996 84.6628L157.463 87.5847L153.674 87.7841L152.846 91.4867L138.611 155.149Z" stroke="url(#paint0_linear_439_737)" stroke-opacity="0.3" stroke-width="10"/>
<g clip-path="url(#clip0_439_737)">
<path d="M140.588 108.588C132.803 108.588 126.47 114.921 126.47 122.706C126.47 130.49 132.803 136.824 140.588 136.824C148.374 136.824 154.706 130.49 154.706 122.706C154.706 114.921 148.373 108.588 140.588 108.588ZM140.588 129.765C136.695 129.765 133.529 126.599 133.529 122.706C133.529 118.813 136.695 115.647 140.588 115.647C144.481 115.647 147.647 118.813 147.647 122.706C147.647 126.599 144.481 129.765 140.588 129.765Z" fill="#0099DB"/>
<path d="M92.353 108.588C84.5684 108.588 78.2354 114.921 78.2354 122.706C78.2354 130.49 84.5684 136.824 92.353 136.824C100.138 136.824 106.471 130.49 106.471 122.706C106.471 114.921 100.138 108.588 92.353 108.588ZM92.353 129.765C88.4602 129.765 85.2942 126.599 85.2942 122.706C85.2942 118.813 88.4602 115.647 92.353 115.647C96.2448 115.647 99.4119 118.813 99.4119 122.706C99.4119 126.599 96.2459 129.765 92.353 129.765Z" fill="#0099DB"/>
<path d="M150.095 68.1789C149.495 66.9872 148.275 66.2354 146.941 66.2354H128.353V73.2942H144.764L154.375 92.4094L160.683 89.2376L150.095 68.1789Z" fill="#0099DB"/>
<path d="M130 119.294H103.294V126.353H130V119.294Z" fill="#0099DB"/>
<path d="M81.7647 119.294H69.5296C67.5801 119.294 66.0002 120.874 66.0002 122.824C66.0002 124.773 67.5803 126.353 69.5296 126.353H81.7649C83.7144 126.353 85.2942 124.773 85.2942 122.824C85.2942 120.874 83.7142 119.294 81.7647 119.294Z" fill="#0099DB"/>
<path d="M167.259 97.7176L160.317 88.7764C159.65 87.9152 158.62 87.4117 157.53 87.4117H131.882V62.7058C131.882 60.7563 130.302 59.1765 128.353 59.1765H69.5296C67.5801 59.1765 66.0002 60.7565 66.0002 62.7058C66.0002 64.6551 67.5803 66.2351 69.5296 66.2351H124.824V90.941C124.824 92.8905 126.404 94.4703 128.353 94.4703H155.801L160.941 101.091V119.294H151.176C149.227 119.294 147.647 120.874 147.647 122.823C147.647 124.773 149.227 126.352 151.176 126.352H164.471C166.42 126.352 168 124.772 168 122.823V99.8824C168 99.0988 167.739 98.3365 167.259 97.7176Z" fill="#0099DB"/>
<path d="M81.5294 101.412H65.294C63.3445 101.412 61.7646 102.992 61.7646 104.941C61.7646 106.891 63.3447 108.47 65.294 108.47H81.5292C83.4786 108.47 85.0585 106.89 85.0585 104.941C85.0587 102.992 83.4786 101.412 81.5294 101.412Z" fill="#0099DB"/>
<path d="M89.647 87.5293H59.5293C57.58 87.5293 56 89.1093 56 91.0588C56 93.0083 57.58 94.5881 59.5293 94.5881H89.647C91.5965 94.5881 93.1763 93.0081 93.1763 91.0588C93.1763 89.1095 91.5965 87.5293 89.647 87.5293Z" fill="#0099DB"/>
<path d="M95.4117 73.647H65.294C63.3445 73.647 61.7646 75.227 61.7646 77.1763C61.7646 79.1258 63.3447 80.7056 65.294 80.7056H95.4117C97.3612 80.7056 98.941 79.1256 98.941 77.1763C98.9412 75.227 97.3612 73.647 95.4117 73.647Z" fill="#0099DB"/>
</g>
<defs>
<linearGradient id="paint0_linear_439_737" x1="180" y1="9.00002" x2="73" y2="148.5" gradientUnits="userSpaceOnUse">
<stop stop-color="#0099DB"/>
<stop offset="1" stop-color="white" stop-opacity="0"/>
</linearGradient>
<clipPath id="clip0_439_737">
<rect width="112" height="112" fill="white" transform="translate(56 42)"/>
</clipPath>
</defs>
</svg>
