<svg width="232" height="170" viewBox="0 0 232 170" fill="none" xmlns="http://www.w3.org/2000/svg">
<path d="M138.611 155.149L108.442 94.4973L106.979 91.5575L103.7 91.7311L22.5105 96.0299L85.8518 62.6877L90.036 60.4852L88.0703 56.1847L67.4202 11.0073L123.456 39.6946L125.859 40.9244L128.205 39.5911L171.497 14.9913L161.283 54.0923L160.263 57.9969L163.865 59.818L212.996 84.6628L157.463 87.5847L153.674 87.7841L152.846 91.4867L138.611 155.149Z" stroke="url(#paint0_linear_439_738)" stroke-opacity="0.3" stroke-width="10"/>
<path d="M151.857 96.7321L145.329 59.7091C144.442 54.6789 139.627 51.3078 134.597 52.1949L78.6073 62.0677C73.577 62.9546 70.2061 67.7686 71.093 72.7988L71.5727 75.5195C68.2967 76.9486 66 80.2172 66 84.0139V120.683C66 125.791 70.1556 129.947 75.2634 129.947H130.844C135.952 129.947 140.107 125.791 140.107 120.683V108.21L144.343 107.463C146.779 107.033 148.903 105.681 150.322 103.654C151.741 101.627 152.286 99.1685 151.857 96.7321ZM146.183 100.756C145.538 101.677 144.573 102.292 143.465 102.487L140.107 103.079V100.199V88.7381V84.0137C140.107 78.9059 135.952 74.7503 130.844 74.7503H76.568L76.0692 71.9213C75.8738 70.8137 76.1217 69.6964 76.7668 68.7749C77.4118 67.8536 78.3773 67.2387 79.4848 67.0433L135.475 57.1707C135.721 57.1273 135.966 57.1064 136.208 57.1064C138.212 57.1064 139.993 58.5461 140.353 60.5862L146.881 97.6092C147.076 98.7169 146.828 99.8343 146.183 100.756ZM130.844 124.894H75.2634C72.9417 124.894 71.0528 123.005 71.0528 120.683V102.726H135.055V120.683C135.055 123.005 133.166 124.894 130.844 124.894ZM75.2634 79.8032H130.844C133.166 79.8032 135.055 81.6921 135.055 84.0139V86.2118H71.0528V84.0139C71.0528 81.6921 72.9417 79.8032 75.2634 79.8032ZM135.055 91.2646V97.6732H71.0528V91.2646H135.055Z" fill="#0099DB"/>
<path d="M90.3127 114.748H78.8513C77.4561 114.748 76.325 115.879 76.325 117.274C76.325 118.67 77.4561 119.801 78.8513 119.801H90.3127C91.7079 119.801 92.8391 118.67 92.8391 117.274C92.8391 115.879 91.7079 114.748 90.3127 114.748Z" fill="#0099DB"/>
<defs>
<linearGradient id="paint0_linear_439_738" x1="180" y1="9.00002" x2="73" y2="148.5" gradientUnits="userSpaceOnUse">
<stop stop-color="#0099DB"/>
<stop offset="1" stop-color="white" stop-opacity="0"/>
</linearGradient>
</defs>
</svg>
